<?xml version="1.0" encoding="UTF-8"?>
<svg width="141px" height="18px" viewBox="0 0 141 18" version="1.1" xmlns="http://www.w3.org/2000/svg" xmlns:xlink="http://www.w3.org/1999/xlink">
    <!-- Generator: Sketch 54.1 (76490) - https://sketchapp.com -->
    <title>logo-the-wellcome-trust</title>
    <desc>Created with Sketch.</desc>
    <g id="logo-the-wellcome-trust" stroke="none" stroke-width="1" fill="none" fill-rule="evenodd">
        <polygon id="Shape" fill="#676561" fill-rule="nonzero" points="17.766 17.676 12.812 17.676 10.941 9.729 10.87 9.729 8.942 17.676 3.991 17.676 0 4.833 5.027 4.833 6.953 12.83 7.026 12.83 8.652 4.833 13.184 4.833 14.905 12.83 15.004 12.83 16.811 4.833 21.836 4.833"></polygon>
        <polygon id="Rectangle-path" fill="#676561" fill-rule="nonzero" points="33.602 0 38.408 0 38.408 17.676 33.602 17.676"></polygon>
        <polygon id="Rectangle-path" fill="#676561" fill-rule="nonzero" points="39.443 0 44.253 0 44.253 17.676 39.443 17.676"></polygon>
        <path d="M50.992,18 C46.978,18 44.12,15.701 44.12,11.267 C44.12,7.211 47.075,4.509 51.141,4.509 C54.393,4.509 57.453,6.166 57.55,10.03 L52.967,10.03 C52.967,8.744 52.275,7.996 51.141,7.996 C49.321,7.996 48.921,9.704 48.921,11.267 C48.921,13.321 49.488,14.513 51.041,14.513 C52.297,14.513 52.967,13.647 53.089,12.603 L57.695,12.603 C57.2,16.067 54.442,18 50.992,18" id="Shape" fill="#676561" fill-rule="nonzero"></path>
        <path d="M66.094,11.242 C66.094,12.625 65.819,14.513 63.926,14.513 C62.024,14.513 61.756,12.625 61.756,11.242 C61.756,9.858 62.024,7.995 63.926,7.995 C65.818,7.995 66.094,9.858 66.094,11.242 M70.894,11.242 C70.894,7.681 68.732,4.509 63.926,4.509 C59.118,4.509 56.951,7.682 56.951,11.242 C56.951,14.8 59.118,18 63.926,18 C68.731,18 70.894,14.8 70.894,11.242" id="Shape" fill="#676561" fill-rule="nonzero"></path>
        <path d="M87.104,17.676 L87.104,10.722 C87.104,9.509 86.981,8.345 85.452,8.345 C84.176,8.345 83.755,9.366 83.755,10.722 L83.755,17.676 L78.923,17.676 L78.923,10.722 C78.923,9.509 78.825,8.345 77.272,8.345 C75.993,8.345 75.573,9.366 75.573,10.722 L75.573,17.676 L70.774,17.676 L70.774,4.833 L75.426,4.833 L75.426,6.565 L75.499,6.565 C76.51,5.05 77.944,4.506 79.716,4.506 C81.066,4.506 82.547,5.229 83.163,6.565 C83.26,6.465 83.389,6.288 83.633,6.045 C83.681,5.971 83.755,5.892 83.826,5.82 C84.499,5.178 85.655,4.506 87.551,4.506 C90.804,4.506 91.91,6.757 91.91,8.836 L91.91,17.675 L87.104,17.675 L87.104,17.676 Z" id="Shape" fill="#676561" fill-rule="nonzero"></path>
        <path d="M101.198,9.858 L96.392,9.858 C96.642,8.369 97.5,7.574 98.884,7.574 C100.287,7.574 101.198,8.572 101.198,9.858 L101.198,9.858 Z M105.806,12.326 C105.782,7.356 103.588,4.512 98.66,4.512 C94.5,4.512 91.789,7.553 91.789,11.291 C91.789,15.572 94.793,18 98.886,18 C101.84,18 104.504,16.737 105.515,14.018 L101.032,14.018 C100.611,14.632 99.72,14.931 98.936,14.931 C97.356,14.931 96.494,13.865 96.372,12.327 L105.806,12.327 L105.806,12.326 Z" id="Shape" fill="#676561" fill-rule="nonzero"></path>
        <path d="M29.461,9.858 L24.651,9.858 C24.892,8.369 25.76,7.574 27.135,7.574 C28.545,7.574 29.461,8.572 29.461,9.858 L29.461,9.858 Z M34.063,12.326 C34.041,7.356 31.845,4.512 26.917,4.512 C22.748,4.512 20.038,7.553 20.038,11.291 C20.038,15.572 23.048,18 27.135,18 C30.097,18 32.76,16.737 33.764,14.018 L29.282,14.018 C28.858,14.632 27.977,14.931 27.183,14.931 C25.604,14.931 24.748,13.865 24.626,12.327 L34.063,12.327 L34.063,12.326 Z" id="Shape" fill="#676561" fill-rule="nonzero"></path>
        <path d="M110.346,12.504 C108.768,12.504 108.07,12.108 108.07,10.4 L108.07,4.289 L106.455,4.289 L106.455,2.873 L108.07,2.873 L108.07,0 L109.649,0 L109.649,2.873 L111.551,2.873 L111.551,4.289 L109.649,4.289 L109.649,10.254 C109.649,10.965 109.852,11.121 110.838,11.121 L111.551,11.121 L111.551,12.504 L110.346,12.504 L110.346,12.504 Z" id="Shape" fill="#676561" fill-rule="nonzero"></path>
        <path d="M114.335,8.44 L114.335,12.503 L112.756,12.503 L112.756,2.873 L114.238,2.873 L114.238,4.93 C114.238,4.93 114.26,4.93 114.26,4.906 C115.022,3.596 116.109,2.874 117.783,2.874 L117.783,4.557 C115.25,4.556 114.335,6.021 114.335,8.44" id="Shape" fill="#676561" fill-rule="nonzero"></path>
        <path d="M125.049,12.504 L125.049,11.096 C124.361,12.158 123.279,12.723 121.951,12.723 C119.434,12.723 118.597,11.267 118.597,9.258 L118.597,2.873 L120.176,2.873 L120.176,9.385 C120.176,10.675 120.913,11.339 122.144,11.339 C124.021,11.339 124.953,10.052 124.953,8.322 L124.953,2.873 L126.531,2.873 L126.531,12.504 L125.049,12.504 Z" id="Shape" fill="#676561" fill-rule="nonzero"></path>
        <path d="M131.429,12.723 C129.283,12.723 127.462,11.866 127.365,9.46 L128.945,9.46 C128.991,10.896 130.174,11.341 131.535,11.341 C132.513,11.341 133.847,11.121 133.847,9.905 C133.847,8.669 132.295,8.5 130.716,8.127 C129.163,7.778 127.584,7.238 127.584,5.4 C127.584,3.447 129.484,2.655 131.162,2.655 C133.258,2.655 134.98,3.318 135.077,5.675 L133.5,5.675 C133.4,4.438 132.438,4.017 131.259,4.017 C130.296,4.017 129.235,4.315 129.235,5.279 C129.235,6.417 130.913,6.635 132.368,6.962 C133.943,7.333 135.5,7.828 135.5,9.68 C135.498,11.984 133.475,12.723 131.429,12.723" id="Shape" fill="#676561" fill-rule="nonzero"></path>
        <path d="M139.512,12.504 C137.933,12.504 137.246,12.108 137.246,10.4 L137.246,4.289 L135.619,4.289 L135.619,2.873 L137.246,2.873 L137.246,0 L138.824,0 L138.824,2.873 L140.717,2.873 L140.717,4.289 L138.824,4.289 L138.824,10.254 C138.824,10.965 139.016,11.121 140.007,11.121 L140.717,11.121 L140.717,12.504 L139.512,12.504 L139.512,12.504 Z" id="Shape" fill="#676561" fill-rule="nonzero"></path>
    </g>
</svg>