<?xml version="1.0" encoding="UTF-8"?>
<svg width="117px" height="36px" viewBox="0 0 117 36" version="1.1" xmlns="http://www.w3.org/2000/svg" xmlns:xlink="http://www.w3.org/1999/xlink">
    <!-- Generator: Sketch 54.1 (76490) - https://sketchapp.com -->
    <title>logo-ebi</title>
    <desc>Created with Sketch.</desc>
    <g id="logo-ebi" stroke="none" stroke-width="1" fill="none" fill-rule="evenodd">
        <path d="M92.978273,7.13983287 C92.1475383,7.13983287 91.4740947,6.46638932 91.4740947,5.6356546 C91.4740947,4.80491987 92.1475383,4.13147632 92.978273,4.13147632 C93.8090077,4.13147632 94.4824513,4.80491987 94.4824513,5.6356546 C94.4824513,6.46638932 93.8090077,7.13983287 92.978273,7.13983287 Z M92.978273,11.2713092 C92.1475383,11.2713092 91.4740947,10.5978656 91.4740947,9.76713092 C91.4740947,8.9363962 92.1475383,8.26295265 92.978273,8.26295265 C93.8090077,8.26295265 94.4824513,8.9363962 94.4824513,9.76713092 C94.4824513,10.5978656 93.8090077,11.2713092 92.978273,11.2713092 Z M92.978273,15.3827298 C92.1475383,15.3827298 91.4740947,14.7092863 91.4740947,13.8785515 C91.4740947,13.0478168 92.1475383,12.3743733 92.978273,12.3743733 C93.8090077,12.3743733 94.4824513,13.0478168 94.4824513,13.8785515 C94.4824513,14.7092863 93.8090077,15.3827298 92.978273,15.3827298 Z M92.978273,19.4941504 C92.1475383,19.4941504 91.4740947,18.8207069 91.4740947,17.9899721 C91.4740947,17.1592374 92.1475383,16.4857939 92.978273,16.4857939 C93.8090077,16.4857939 94.4824513,17.1592374 94.4824513,17.9899721 C94.4824513,18.8207069 93.8090077,19.4941504 92.978273,19.4941504 Z M92.978273,27.7571031 C92.1475383,27.7571031 91.4740947,27.0836595 91.4740947,26.2529248 C91.4740947,25.4221901 92.1475383,24.7487465 92.978273,24.7487465 C93.8090077,24.7487465 94.4824513,25.4221901 94.4824513,26.2529248 C94.4824513,27.0836595 93.8090077,27.7571031 92.978273,27.7571031 Z M92.978273,31.8885794 C92.1475383,31.8885794 91.4740947,31.2151358 91.4740947,30.3844011 C91.4740947,29.5536664 92.1475383,28.8802228 92.978273,28.8802228 C93.8090077,28.8802228 94.4824513,29.5536664 94.4824513,30.3844011 C94.4824513,31.2151358 93.8090077,31.8885794 92.978273,31.8885794 Z M85.5576602,11.2512535 C84.7269254,11.2512535 84.0534819,10.5778099 84.0534819,9.74707521 C84.0534819,8.91634049 84.7269254,8.24289694 85.5576602,8.24289694 C86.3883949,8.24289694 87.0618384,8.91634049 87.0618384,9.74707521 C87.0618384,10.5778099 86.3883949,11.2512535 85.5576602,11.2512535 Z M85.5576602,15.4027855 C84.7269254,15.4027855 84.0534819,14.729342 84.0534819,13.8986072 C84.0534819,13.0678725 84.7269254,12.394429 85.5576602,12.394429 C86.3883949,12.394429 87.0618384,13.0678725 87.0618384,13.8986072 C87.0618384,14.729342 86.3883949,15.4027855 85.5576602,15.4027855 Z M85.5576602,19.4941504 C84.7269254,19.4941504 84.0534819,18.8207069 84.0534819,17.9899721 C84.0534819,17.1592374 84.7269254,16.4857939 85.5576602,16.4857939 C86.3883949,16.4857939 87.0618384,17.1592374 87.0618384,17.9899721 C87.0618384,18.8207069 86.3883949,19.4941504 85.5576602,19.4941504 Z M85.5576602,23.6256267 C84.7269254,23.6256267 84.0534819,22.9521832 84.0534819,22.1214485 C84.0534819,21.2907137 84.7269254,20.6172702 85.5576602,20.6172702 C86.3883949,20.6172702 87.0618384,21.2907137 87.0618384,22.1214485 C87.0618384,22.9521832 86.3883949,23.6256267 85.5576602,23.6256267 Z M85.5576602,27.7370474 C84.7269254,27.7370474 84.0534819,27.0636038 84.0534819,26.2328691 C84.0534819,25.4021344 84.7269254,24.7286908 85.5576602,24.7286908 C86.3883949,24.7286908 87.0618384,25.4021344 87.0618384,26.2328691 C87.0618384,27.0636038 86.3883949,27.7370474 85.5576602,27.7370474 Z M89.3682451,9.20557103 C88.5375104,9.20557103 87.8640669,8.53212748 87.8640669,7.70139276 C87.8640669,6.87065804 88.5375104,6.19721448 89.3682451,6.19721448 C90.1989798,6.19721448 90.8724234,6.87065804 90.8724234,7.70139276 C90.8724234,8.53212748 90.1989798,9.20557103 89.3682451,9.20557103 Z M89.3682451,13.3370474 C88.5375104,13.3370474 87.8640669,12.6636038 87.8640669,11.8328691 C87.8640669,11.0021344 88.5375104,10.3286908 89.3682451,10.3286908 C90.1989798,10.3286908 90.8724234,11.0021344 90.8724234,11.8328691 C90.8724234,12.6636038 90.1989798,13.3370474 89.3682451,13.3370474 Z M89.3682451,17.448468 C88.5375104,17.448468 87.8640669,16.7750244 87.8640669,15.9442897 C87.8640669,15.113555 88.5375104,14.4401114 89.3682451,14.4401114 C90.1989798,14.4401114 90.8724234,15.113555 90.8724234,15.9442897 C90.8724234,16.7750244 90.1989798,17.448468 89.3682451,17.448468 Z M89.3682451,21.5598886 C88.5375104,21.5598886 87.8640669,20.886445 87.8640669,20.0557103 C87.8640669,19.2249756 88.5375104,18.551532 89.3682451,18.551532 C90.1989798,18.551532 90.8724234,19.2249756 90.8724234,20.0557103 C90.8724234,20.886445 90.1989798,21.5598886 89.3682451,21.5598886 Z M89.3682451,25.6713092 C88.5375104,25.6713092 87.8640669,24.9978656 87.8640669,24.1671309 C87.8640669,23.3363962 88.5375104,22.6629526 89.3682451,22.6629526 C90.1989798,22.6629526 90.8724234,23.3363962 90.8724234,24.1671309 C90.8724234,24.9978656 90.1989798,25.6713092 89.3682451,25.6713092 Z M89.3682451,29.7827298 C88.5375104,29.7827298 87.8640669,29.1092863 87.8640669,28.2785515 C87.8640669,27.4478168 88.5375104,26.7743733 89.3682451,26.7743733 C90.1989798,26.7743733 90.8724234,27.4478168 90.8724234,28.2785515 C90.8724234,29.1092863 90.1989798,29.7827298 89.3682451,29.7827298 Z M114.979387,11.2512535 C114.148652,11.2512535 113.475209,10.5778099 113.475209,9.74707521 C113.475209,8.91634049 114.148652,8.24289694 114.979387,8.24289694 C115.810122,8.24289694 116.483565,8.91634049 116.483565,9.74707521 C116.483565,10.5778099 115.810122,11.2512535 114.979387,11.2512535 Z M114.979387,15.3426184 C114.148652,15.3426184 113.475209,14.6691748 113.475209,13.8384401 C113.475209,13.0077054 114.148652,12.3342618 114.979387,12.3342618 C115.810122,12.3342618 116.483565,13.0077054 116.483565,13.8384401 C116.483565,14.6691748 115.810122,15.3426184 114.979387,15.3426184 Z M114.979387,19.4941504 C114.148652,19.4941504 113.475209,18.8207069 113.475209,17.9899721 C113.475209,17.1592374 114.148652,16.4857939 114.979387,16.4857939 C115.810122,16.4857939 116.483565,17.1592374 116.483565,17.9899721 C116.483565,18.8207069 115.810122,19.4941504 114.979387,19.4941504 Z M114.979387,23.5654596 C114.148652,23.5654596 113.475209,22.8920161 113.475209,22.0612813 C113.475209,21.2305466 114.148652,20.5571031 114.979387,20.5571031 C115.810122,20.5571031 116.483565,21.2305466 116.483565,22.0612813 C116.483565,22.8920161 115.810122,23.5654596 114.979387,23.5654596 Z M114.979387,27.7771588 C114.148652,27.7771588 113.475209,27.1037152 113.475209,26.2729805 C113.475209,25.4422458 114.148652,24.7688022 114.979387,24.7688022 C115.810122,24.7688022 116.483565,25.4422458 116.483565,26.2729805 C116.483565,27.1037152 115.810122,27.7771588 114.979387,27.7771588 Z M111.228969,9.20557103 C110.398235,9.20557103 109.724791,8.53212748 109.724791,7.70139276 C109.724791,6.87065804 110.398235,6.19721448 111.228969,6.19721448 C112.059704,6.19721448 112.733148,6.87065804 112.733148,7.70139276 C112.733148,8.53212748 112.059704,9.20557103 111.228969,9.20557103 Z M111.228969,13.3370474 C110.398235,13.3370474 109.724791,12.6636038 109.724791,11.8328691 C109.724791,11.0021344 110.398235,10.3286908 111.228969,10.3286908 C112.059704,10.3286908 112.733148,11.0021344 112.733148,11.8328691 C112.733148,12.6636038 112.059704,13.3370474 111.228969,13.3370474 Z M111.228969,17.448468 C110.398235,17.448468 109.724791,16.7750244 109.724791,15.9442897 C109.724791,15.113555 110.398235,14.4401114 111.228969,14.4401114 C112.059704,14.4401114 112.733148,15.113555 112.733148,15.9442897 C112.733148,16.7750244 112.059704,17.448468 111.228969,17.448468 Z M111.228969,21.5598886 C110.398235,21.5598886 109.724791,20.886445 109.724791,20.0557103 C109.724791,19.2249756 110.398235,18.551532 111.228969,18.551532 C112.059704,18.551532 112.733148,19.2249756 112.733148,20.0557103 C112.733148,20.886445 112.059704,21.5598886 111.228969,21.5598886 Z M111.228969,25.6713092 C110.398235,25.6713092 109.724791,24.9978656 109.724791,24.1671309 C109.724791,23.3363962 110.398235,22.6629526 111.228969,22.6629526 C112.059704,22.6629526 112.733148,23.3363962 112.733148,24.1671309 C112.733148,24.9978656 112.059704,25.6713092 111.228969,25.6713092 Z M111.228969,29.7827298 C110.398235,29.7827298 109.724791,29.1092863 109.724791,28.2785515 C109.724791,27.4478168 110.398235,26.7743733 111.228969,26.7743733 C112.059704,26.7743733 112.733148,27.4478168 112.733148,28.2785515 C112.733148,29.1092863 112.059704,29.7827298 111.228969,29.7827298 Z M107.618942,7.11977716 C106.788207,7.11977716 106.114763,6.44633361 106.114763,5.61559889 C106.114763,4.78486416 106.788207,4.11142061 107.618942,4.11142061 C108.449676,4.11142061 109.12312,4.78486416 109.12312,5.61559889 C109.12312,6.44633361 108.449676,7.11977716 107.618942,7.11977716 Z M107.618942,11.2713092 C106.788207,11.2713092 106.114763,10.5978656 106.114763,9.76713092 C106.114763,8.9363962 106.788207,8.26295265 107.618942,8.26295265 C108.449676,8.26295265 109.12312,8.9363962 109.12312,9.76713092 C109.12312,10.5978656 108.449676,11.2713092 107.618942,11.2713092 Z M107.618942,15.3426184 C106.788207,15.3426184 106.114763,14.6691748 106.114763,13.8384401 C106.114763,13.0077054 106.788207,12.3342618 107.618942,12.3342618 C108.449676,12.3342618 109.12312,13.0077054 109.12312,13.8384401 C109.12312,14.6691748 108.449676,15.3426184 107.618942,15.3426184 Z M107.618942,19.4941504 C106.788207,19.4941504 106.114763,18.8207069 106.114763,17.9899721 C106.114763,17.1592374 106.788207,16.4857939 107.618942,16.4857939 C108.449676,16.4857939 109.12312,17.1592374 109.12312,17.9899721 C109.12312,18.8207069 108.449676,19.4941504 107.618942,19.4941504 Z M107.618942,23.5654596 C106.788207,23.5654596 106.114763,22.8920161 106.114763,22.0612813 C106.114763,21.2305466 106.788207,20.5571031 107.618942,20.5571031 C108.449676,20.5571031 109.12312,21.2305466 109.12312,22.0612813 C109.12312,22.8920161 108.449676,23.5654596 107.618942,23.5654596 Z M107.618942,27.7771588 C106.788207,27.7771588 106.114763,27.1037152 106.114763,26.2729805 C106.114763,25.4422458 106.788207,24.7688022 107.618942,24.7688022 C108.449676,24.7688022 109.12312,25.4422458 109.12312,26.2729805 C109.12312,27.1037152 108.449676,27.7771588 107.618942,27.7771588 Z M107.618942,31.8885794 C106.788207,31.8885794 106.114763,31.2151358 106.114763,30.3844011 C106.114763,29.5536664 106.788207,28.8802228 107.618942,28.8802228 C108.449676,28.8802228 109.12312,29.5536664 109.12312,30.3844011 C109.12312,31.2151358 108.449676,31.8885794 107.618942,31.8885794 Z M92.978273,23.5654596 C92.1475383,23.5654596 91.4740947,22.8920161 91.4740947,22.0612813 C91.4740947,21.2305466 92.1475383,20.5571031 92.978273,20.5571031 C93.8090077,20.5571031 94.4824513,21.2305466 94.4824513,22.0612813 C94.4824513,22.8920161 93.8090077,23.5654596 92.978273,23.5654596 Z M104.008914,5.11420613 C103.178179,5.11420613 102.504735,4.44076258 102.504735,3.61002786 C102.504735,2.77929313 103.178179,2.10584958 104.008914,2.10584958 C104.839648,2.10584958 105.513092,2.77929313 105.513092,3.61002786 C105.513092,4.44076258 104.839648,5.11420613 104.008914,5.11420613 Z M104.008914,9.12534819 C103.178179,9.12534819 102.504735,8.45190464 102.504735,7.62116992 C102.504735,6.7904352 103.178179,6.11699164 104.008914,6.11699164 C104.839648,6.11699164 105.513092,6.7904352 105.513092,7.62116992 C105.513092,8.45190464 104.839648,9.12534819 104.008914,9.12534819 Z M104.008914,13.3370474 C103.178179,13.3370474 102.504735,12.6636038 102.504735,11.8328691 C102.504735,11.0021344 103.178179,10.3286908 104.008914,10.3286908 C104.839648,10.3286908 105.513092,11.0021344 105.513092,11.8328691 C105.513092,12.6636038 104.839648,13.3370474 104.008914,13.3370474 Z M104.008914,17.3481894 C103.178179,17.3481894 102.504735,16.6747459 102.504735,15.8440111 C102.504735,15.0132764 103.178179,14.3398329 104.008914,14.3398329 C104.839648,14.3398329 105.513092,15.0132764 105.513092,15.8440111 C105.513092,16.6747459 104.839648,17.3481894 104.008914,17.3481894 Z M104.008914,21.5598886 C103.178179,21.5598886 102.504735,20.886445 102.504735,20.0557103 C102.504735,19.2249756 103.178179,18.551532 104.008914,18.551532 C104.839648,18.551532 105.513092,19.2249756 105.513092,20.0557103 C105.513092,20.886445 104.839648,21.5598886 104.008914,21.5598886 Z M104.008914,25.6713092 C103.178179,25.6713092 102.504735,24.9978656 102.504735,24.1671309 C102.504735,23.3363962 103.178179,22.6629526 104.008914,22.6629526 C104.839648,22.6629526 105.513092,23.3363962 105.513092,24.1671309 C105.513092,24.9978656 104.839648,25.6713092 104.008914,25.6713092 Z M104.008914,29.7827298 C103.178179,29.7827298 102.504735,29.1092863 102.504735,28.2785515 C102.504735,27.4478168 103.178179,26.7743733 104.008914,26.7743733 C104.839648,26.7743733 105.513092,27.4478168 105.513092,28.2785515 C105.513092,29.1092863 104.839648,29.7827298 104.008914,29.7827298 Z M104.008914,33.9142061 C103.178179,33.9142061 102.504735,33.2407626 102.504735,32.4100279 C102.504735,31.5792931 103.178179,30.9058496 104.008914,30.9058496 C104.839648,30.9058496 105.513092,31.5792931 105.513092,32.4100279 C105.513092,33.2407626 104.839648,33.9142061 104.008914,33.9142061 Z M100.298607,3.00835655 C99.4678725,3.00835655 98.794429,2.33491299 98.794429,1.50417827 C98.794429,0.673443552 99.4678725,0 100.298607,0 C101.129342,0 101.802786,0.673443552 101.802786,1.50417827 C101.802786,2.33491299 101.129342,3.00835655 100.298607,3.00835655 Z M100.298607,7.11977716 C99.4678725,7.11977716 98.794429,6.44633361 98.794429,5.61559889 C98.794429,4.78486416 99.4678725,4.11142061 100.298607,4.11142061 C101.129342,4.11142061 101.802786,4.78486416 101.802786,5.61559889 C101.802786,6.44633361 101.129342,7.11977716 100.298607,7.11977716 Z M100.298607,11.2512535 C99.4678725,11.2512535 98.794429,10.5778099 98.794429,9.74707521 C98.794429,8.91634049 99.4678725,8.24289694 100.298607,8.24289694 C101.129342,8.24289694 101.802786,8.91634049 101.802786,9.74707521 C101.802786,10.5778099 101.129342,11.2512535 100.298607,11.2512535 Z M100.298607,15.3426184 C99.4678725,15.3426184 98.794429,14.6691748 98.794429,13.8384401 C98.794429,13.0077054 99.4678725,12.3342618 100.298607,12.3342618 C101.129342,12.3342618 101.802786,13.0077054 101.802786,13.8384401 C101.802786,14.6691748 101.129342,15.3426184 100.298607,15.3426184 Z M100.298607,19.5543175 C99.4678725,19.5543175 98.794429,18.880874 98.794429,18.0501393 C98.794429,17.2194046 99.4678725,16.545961 100.298607,16.545961 C101.129342,16.545961 101.802786,17.2194046 101.802786,18.0501393 C101.802786,18.880874 101.129342,19.5543175 100.298607,19.5543175 Z M100.298607,23.6256267 C99.4678725,23.6256267 98.794429,22.9521832 98.794429,22.1214485 C98.794429,21.2907137 99.4678725,20.6172702 100.298607,20.6172702 C101.129342,20.6172702 101.802786,21.2907137 101.802786,22.1214485 C101.802786,22.9521832 101.129342,23.6256267 100.298607,23.6256267 Z M100.298607,27.7771588 C99.4678725,27.7771588 98.794429,27.1037152 98.794429,26.2729805 C98.794429,25.4422458 99.4678725,24.7688022 100.298607,24.7688022 C101.129342,24.7688022 101.802786,25.4422458 101.802786,26.2729805 C101.802786,27.1037152 101.129342,27.7771588 100.298607,27.7771588 Z M100.298607,31.8685237 C99.4678725,31.8685237 98.794429,31.1950801 98.794429,30.3643454 C98.794429,29.5336107 99.4678725,28.8601671 100.298607,28.8601671 C101.129342,28.8601671 101.802786,29.5336107 101.802786,30.3643454 C101.802786,31.1950801 101.129342,31.8685237 100.298607,31.8685237 Z M96.5883008,5.054039 C95.7575661,5.054039 95.0841226,4.38059545 95.0841226,3.54986072 C95.0841226,2.719126 95.7575661,2.04568245 96.5883008,2.04568245 C97.4190356,2.04568245 98.0924791,2.719126 98.0924791,3.54986072 C98.0924791,4.38059545 97.4190356,5.054039 96.5883008,5.054039 Z M96.5883008,9.18551532 C95.7575661,9.18551532 95.0841226,8.51207177 95.0841226,7.68133705 C95.0841226,6.85060233 95.7575661,6.17715877 96.5883008,6.17715877 C97.4190356,6.17715877 98.0924791,6.85060233 98.0924791,7.68133705 C98.0924791,8.51207177 97.4190356,9.18551532 96.5883008,9.18551532 Z M96.5883008,13.2969359 C95.7575661,13.2969359 95.0841226,12.6234924 95.0841226,11.7927577 C95.0841226,10.9620229 95.7575661,10.2885794 96.5883008,10.2885794 C97.4190356,10.2885794 98.0924791,10.9620229 98.0924791,11.7927577 C98.0924791,12.6234924 97.4190356,13.2969359 96.5883008,13.2969359 Z M96.5883008,17.4284123 C95.7575661,17.4284123 95.0841226,16.7549687 95.0841226,15.924234 C95.0841226,15.0934993 95.7575661,14.4200557 96.5883008,14.4200557 C97.4190356,14.4200557 98.0924791,15.0934993 98.0924791,15.924234 C98.0924791,16.7549687 97.4190356,17.4284123 96.5883008,17.4284123 Z M96.5883008,21.5598886 C95.7575661,21.5598886 95.0841226,20.886445 95.0841226,20.0557103 C95.0841226,19.2249756 95.7575661,18.551532 96.5883008,18.551532 C97.4190356,18.551532 98.0924791,19.2249756 98.0924791,20.0557103 C98.0924791,20.886445 97.4190356,21.5598886 96.5883008,21.5598886 Z M96.5883008,25.6713092 C95.7575661,25.6713092 95.0841226,24.9978656 95.0841226,24.1671309 C95.0841226,23.3363962 95.7575661,22.6629526 96.5883008,22.6629526 C97.4190356,22.6629526 98.0924791,23.3363962 98.0924791,24.1671309 C98.0924791,24.9978656 97.4190356,25.6713092 96.5883008,25.6713092 Z M96.5883008,29.7827298 C95.7575661,29.7827298 95.0841226,29.1092863 95.0841226,28.2785515 C95.0841226,27.4478168 95.7575661,26.7743733 96.5883008,26.7743733 C97.4190356,26.7743733 98.0924791,27.4478168 98.0924791,28.2785515 C98.0924791,29.1092863 97.4190356,29.7827298 96.5883008,29.7827298 Z M96.5883008,33.9142061 C95.7575661,33.9142061 95.0841226,33.2407626 95.0841226,32.4100279 C95.0841226,31.5792931 95.7575661,30.9058496 96.5883008,30.9058496 C97.4190356,30.9058496 98.0924791,31.5792931 98.0924791,32.4100279 C98.0924791,33.2407626 97.4190356,33.9142061 96.5883008,33.9142061 Z M100.298607,36 C99.4678725,36 98.794429,35.3265564 98.794429,34.4958217 C98.794429,33.665087 99.4678725,32.9916435 100.298607,32.9916435 C101.129342,32.9916435 101.802786,33.665087 101.802786,34.4958217 C101.802786,35.3265564 101.129342,36 100.298607,36 Z M38.8679666,22.8446574 L45.233649,22.8446574 L45.233649,24.3103287 L37.2755432,24.3103287 L37.2755432,24.2674095 L37.1832869,24.2674095 L37.1832869,11.8328691 L38.8679666,11.8328691 L38.8679666,22.8446574 L38.8679666,22.8446574 Z M-2.84217094e-14,11.7526462 L8.98495822,11.7526462 L8.98495822,13.2969359 L1.62451253,13.2969359 L1.62451253,17.0674095 L8.44345404,17.0674095 L8.44345404,18.4713092 L1.62451253,18.4713092 L1.62451253,22.6830084 L9.1454039,22.6830084 L9.1454039,24.1871866 L-2.84217094e-14,24.1871866 L-2.84217094e-14,11.7526462 Z M10.6295265,11.8328691 L13.0362117,11.8328691 L16.6061281,22.3420613 L20.1359331,11.8328691 L22.5426184,11.8328691 L22.5426184,24.2674095 L20.9381616,24.2674095 L20.9381616,13.778273 L17.4083565,24.2072423 L15.7637883,24.2072423 L12.1938719,13.778273 L12.1938719,24.2072423 L10.589415,24.2072423 L10.6295265,11.8328691 Z M25.5910864,24.2272981 L25.5910864,24.2674095 L25.5910864,11.8328691 L30.9660167,11.8328691 C32.4100279,11.8328691 34.616156,12.4345404 34.616156,14.9214485 C34.616156,16.7064067 33.4128134,17.3682451 32.951532,17.5688022 C33.6133705,17.8094708 35.2178273,18.3309192 35.2178273,20.6172702 C35.2178273,23.2846797 32.7509749,24.2272981 30.8657382,24.2272981 L25.5910864,24.2272981 Z M27.2557103,13.2367688 L27.2557103,17.0874652 L30.3442897,17.0874652 C31.0662953,17.0874652 32.951532,17.0473538 32.951532,15.1220056 C32.951532,13.2768802 31.0261838,13.2367688 30.2640669,13.2367688 L27.2557103,13.2367688 Z M30.9058496,22.8033426 L30.9058496,22.7832869 C31.9487465,22.8033426 33.5532033,22.4824513 33.5532033,20.5370474 C33.5532033,18.5114206 31.3270195,18.4512535 30.6050139,18.4512535 L27.2557103,18.4512535 L27.2557103,22.8033426 L30.9058496,22.8033426 Z M51.1420613,16.7665738 L51.1420613,18.0300836 L46.1682451,18.0300836 L46.1682451,16.7665738 L51.1420613,16.7665738 Z M53.7091922,11.7526462 L62.6941504,11.7526462 L62.6941504,13.2969359 L55.3337047,13.2969359 L55.3337047,17.0674095 L62.1526462,17.0674095 L62.1526462,18.4713092 L55.3337047,18.4713092 L55.3337047,22.6830084 L62.8545961,22.6830084 L62.8545961,24.1871866 L53.7091922,24.1871866 L53.7091922,11.7526462 Z M64.3788301,24.2272981 L64.3788301,24.2674095 L64.3788301,11.8328691 L69.7537604,11.8328691 C71.1977716,11.8328691 73.4038997,12.4345404 73.4038997,14.9214485 C73.4038997,16.7064067 72.2005571,17.3682451 71.7392758,17.5688022 C72.4011142,17.8094708 74.005571,18.3309192 74.005571,20.6172702 C74.005571,23.2846797 71.5387187,24.2272981 69.6534819,24.2272981 L64.3788301,24.2272981 Z M66.043454,13.2367688 L66.043454,17.0874652 L69.1320334,17.0874652 C69.854039,17.0874652 71.7392758,17.0473538 71.7392758,15.1220056 C71.7392758,13.2768802 69.8139276,13.2367688 69.0518106,13.2367688 L66.043454,13.2367688 Z M69.6935933,22.8033426 L69.6935933,22.7832869 C70.7364903,22.8033426 72.3409471,22.4824513 72.3409471,20.5370474 C72.3409471,18.5114206 70.1147632,18.4512535 69.3927577,18.4512535 L66.043454,18.4512535 L66.043454,22.8033426 L69.6935933,22.8033426 Z M75.6902507,24.2674095 L75.6902507,11.8328691 L77.3749304,11.8328691 L77.3749304,24.2674095 L75.6902507,24.2674095 Z" id="Shape" fill="#676561" fill-rule="nonzero"></path>
    </g>
</svg>