<?xml version="1.0" encoding="UTF-8"?>
<svg width="116px" height="24px" viewBox="0 0 116 24" version="1.1" xmlns="http://www.w3.org/2000/svg" xmlns:xlink="http://www.w3.org/1999/xlink">
    <!-- Generator: Sketch 54.1 (76490) - https://sketchapp.com -->
    <title>logo-the-royal-society</title>
    <desc>Created with Sketch.</desc>
    <g id="logo-the-royal-society" stroke="none" stroke-width="1" fill="none" fill-rule="evenodd">
        <path d="M37.84,0.939 L36.016,0.988 C35.307,1.013 35.014,1.072 34.828,1.338 C34.708,1.52 34.644,1.665 34.623,1.761 C34.599,1.858 34.56,1.907 34.485,1.907 C34.401,1.907 34.376,1.845 34.376,1.711 C34.376,1.52 34.611,0.421 34.634,0.327 C34.673,0.168 34.708,0.095 34.78,0.095 C34.88,0.095 35.002,0.218 35.307,0.241 C35.661,0.274 36.127,0.301 36.534,0.301 L41.378,0.301 C41.769,0.301 42.039,0.266 42.223,0.241 C42.407,0.205 42.503,0.179 42.554,0.179 C42.638,0.179 42.652,0.253 42.652,0.433 C42.652,0.686 42.617,1.519 42.617,1.831 C42.605,1.951 42.58,2.024 42.504,2.024 C42.407,2.024 42.385,1.962 42.372,1.783 L42.359,1.648 C42.333,1.338 42.002,1 40.914,0.978 L39.37,0.939 L39.37,5.88 C39.37,6.992 39.37,7.944 39.432,8.461 C39.467,8.8 39.542,9.065 39.911,9.115 C40.083,9.137 40.352,9.163 40.534,9.163 C40.671,9.163 40.729,9.196 40.729,9.259 C40.729,9.341 40.629,9.378 40.497,9.378 C39.689,9.378 38.921,9.341 38.575,9.341 C38.295,9.341 37.522,9.378 37.034,9.378 C36.876,9.378 36.788,9.341 36.788,9.259 C36.788,9.197 36.836,9.163 36.985,9.163 C37.169,9.163 37.315,9.138 37.424,9.115 C37.67,9.064 37.742,8.8 37.778,8.449 C37.84,7.944 37.84,6.992 37.84,5.88 L37.84,0.939 L37.84,0.939 Z" id="Shape" fill="#676561" fill-rule="nonzero"></path>
        <path d="M51.938,4.098 C51.974,4.098 52.011,4.075 52.011,4.016 L52.011,3.762 C52.011,1.931 52.011,1.592 51.989,1.207 C51.962,0.795 51.865,0.602 51.462,0.518 C51.363,0.495 51.155,0.483 50.983,0.483 C50.848,0.483 50.776,0.46 50.776,0.373 C50.776,0.29 50.86,0.267 51.034,0.267 C51.693,0.267 52.465,0.302 52.795,0.302 C53.089,0.302 53.86,0.267 54.339,0.267 C54.509,0.267 54.597,0.29 54.597,0.373 C54.597,0.46 54.525,0.483 54.374,0.483 C54.276,0.483 54.165,0.495 54.02,0.518 C53.691,0.58 53.592,0.784 53.565,1.207 C53.543,1.592 53.543,1.931 53.543,3.762 L53.543,5.881 C53.543,6.993 53.543,7.945 53.605,8.464 C53.64,8.801 53.714,9.066 54.082,9.116 C54.253,9.14 54.525,9.164 54.705,9.164 C54.838,9.164 54.902,9.197 54.902,9.26 C54.902,9.344 54.802,9.379 54.656,9.379 C53.861,9.379 53.09,9.344 52.748,9.344 C52.466,9.344 51.694,9.379 51.215,9.379 C51.046,9.379 50.961,9.344 50.961,9.26 C50.961,9.198 51.01,9.164 51.156,9.164 C51.34,9.164 51.488,9.141 51.597,9.116 C51.841,9.065 51.904,8.801 51.951,8.45 C52.013,7.945 52.013,6.993 52.013,5.881 L52.013,4.821 C52.013,4.773 51.976,4.751 51.94,4.751 L47.265,4.751 C47.227,4.751 47.192,4.762 47.192,4.821 L47.192,5.881 C47.192,6.993 47.192,7.945 47.254,8.464 C47.289,8.801 47.364,9.066 47.731,9.116 C47.901,9.14 48.169,9.164 48.353,9.164 C48.49,9.164 48.551,9.197 48.551,9.26 C48.551,9.344 48.452,9.379 48.306,9.379 C47.511,9.379 46.738,9.344 46.395,9.344 C46.115,9.344 45.343,9.379 44.855,9.379 C44.696,9.379 44.609,9.344 44.609,9.26 C44.609,9.198 44.66,9.164 44.804,9.164 C44.99,9.164 45.134,9.141 45.245,9.116 C45.491,9.065 45.551,8.801 45.6,8.45 C45.662,7.945 45.662,6.993 45.662,5.881 L45.662,3.762 C45.662,1.931 45.662,1.592 45.635,1.207 C45.611,0.795 45.513,0.602 45.109,0.518 C45.012,0.495 44.803,0.483 44.633,0.483 C44.498,0.483 44.424,0.46 44.424,0.373 C44.424,0.29 44.51,0.267 44.682,0.267 C45.342,0.267 46.114,0.302 46.444,0.302 C46.737,0.302 47.51,0.267 47.987,0.267 C48.157,0.267 48.243,0.29 48.243,0.373 C48.243,0.46 48.169,0.483 48.024,0.483 C47.926,0.483 47.815,0.495 47.669,0.518 C47.337,0.58 47.239,0.784 47.216,1.207 C47.193,1.592 47.193,1.931 47.193,3.762 L47.193,4.016 C47.193,4.075 47.228,4.098 47.266,4.098 L51.938,4.098 Z" id="Shape" fill="#676561" fill-rule="nonzero"></path>
        <path d="M58.001,3.762 C58.001,1.929 58.001,1.59 57.976,1.207 C57.95,0.795 57.852,0.602 57.45,0.518 C57.352,0.495 57.143,0.483 56.973,0.483 C56.838,0.483 56.763,0.46 56.763,0.373 C56.763,0.29 56.848,0.267 57.032,0.267 C57.683,0.267 58.454,0.302 58.797,0.302 C59.192,0.302 61.623,0.302 61.857,0.29 C62.089,0.267 62.286,0.242 62.382,0.219 C62.444,0.206 62.517,0.169 62.58,0.169 C62.64,0.169 62.653,0.219 62.653,0.278 C62.653,0.361 62.592,0.507 62.553,1.06 C62.542,1.181 62.516,1.713 62.492,1.86 C62.482,1.917 62.455,1.99 62.369,1.99 C62.284,1.99 62.261,1.929 62.261,1.822 C62.261,1.738 62.246,1.531 62.188,1.385 C62.102,1.169 61.978,1.025 61.368,0.953 C61.159,0.928 59.874,0.904 59.63,0.904 C59.566,0.904 59.545,0.941 59.545,1.024 L59.545,4.074 C59.545,4.16 59.556,4.206 59.63,4.206 C59.899,4.206 61.306,4.206 61.587,4.185 C61.88,4.161 62.066,4.123 62.175,4.003 C62.262,3.907 62.312,3.846 62.37,3.846 C62.419,3.846 62.456,3.871 62.456,3.942 C62.456,4.016 62.396,4.207 62.358,4.822 C62.335,5.063 62.311,5.547 62.311,5.631 C62.311,5.729 62.311,5.859 62.198,5.859 C62.113,5.859 62.089,5.811 62.089,5.753 C62.077,5.632 62.077,5.478 62.038,5.318 C61.978,5.077 61.809,4.898 61.354,4.846 C61.123,4.823 59.909,4.815 59.617,4.815 C59.555,4.815 59.545,4.861 59.545,4.933 L59.545,5.885 C59.545,6.294 59.532,7.405 59.545,7.754 C59.566,8.585 59.762,8.767 61.012,8.767 C61.33,8.767 61.845,8.767 62.163,8.62 C62.483,8.478 62.628,8.224 62.712,7.73 C62.737,7.599 62.762,7.547 62.849,7.547 C62.947,7.547 62.947,7.645 62.947,7.766 C62.947,8.042 62.849,8.866 62.786,9.102 C62.701,9.418 62.594,9.418 62.125,9.418 C60.281,9.418 59.461,9.345 58.736,9.345 C58.455,9.345 57.684,9.383 57.194,9.383 C57.033,9.383 56.949,9.345 56.949,9.261 C56.949,9.2 56.998,9.163 57.144,9.163 C57.331,9.163 57.474,9.142 57.583,9.117 C57.828,9.066 57.892,8.802 57.94,8.453 C58.002,7.946 58.002,6.994 58.002,5.885 L58.002,3.762 L58.001,3.762 Z" id="Shape" fill="#676561" fill-rule="nonzero"></path>
        <path d="M36.311,23.688 C36.115,23.603 36.078,23.544 36.078,23.278 C36.078,22.615 36.128,21.893 36.14,21.699 C36.152,21.518 36.19,21.387 36.288,21.387 C36.396,21.387 36.408,21.493 36.408,21.591 C36.408,21.749 36.458,22.002 36.52,22.205 C36.79,23.1 37.509,23.424 38.268,23.424 C39.369,23.424 39.911,22.689 39.911,22.048 C39.911,21.457 39.727,20.893 38.712,20.121 L38.148,19.685 C36.8,18.647 36.336,17.805 36.336,16.826 C36.336,15.503 37.464,14.549 39.163,14.549 C39.958,14.549 40.475,14.671 40.791,14.754 C40.902,14.777 40.964,14.817 40.964,14.9 C40.964,15.053 40.915,15.407 40.915,16.344 C40.915,16.611 40.876,16.707 40.778,16.707 C40.694,16.707 40.659,16.636 40.659,16.488 C40.659,16.382 40.595,16.009 40.339,15.695 C40.156,15.465 39.802,15.102 39.003,15.102 C38.097,15.102 37.548,15.623 37.548,16.343 C37.548,16.9 37.828,17.322 38.845,18.079 L39.188,18.335 C40.66,19.455 41.195,20.262 41.195,21.407 C41.195,22.106 40.925,22.94 40.044,23.505 C39.432,23.894 38.748,24 38.096,24 C37.389,24 36.836,23.917 36.311,23.688" id="Shape" fill="#676561" fill-rule="nonzero"></path>
        <path d="M51.709,19.504 C51.709,16.805 50.127,15.128 48.121,15.128 C46.715,15.128 45.11,15.899 45.11,18.902 C45.11,21.408 46.517,23.399 48.869,23.399 C49.725,23.399 51.709,22.987 51.709,19.504 M43.422,19.273 C43.422,17.212 44.805,14.547 48.478,14.547 C51.524,14.547 53.42,16.296 53.42,19.058 C53.42,21.816 51.463,23.999 48.354,23.999 C44.842,24 43.422,21.408 43.422,19.273" id="Shape" fill="#676561" fill-rule="nonzero"></path>
        <path d="M57.055,22.688 C55.856,21.652 55.538,20.299 55.538,19.131 C55.538,18.311 55.794,16.889 56.971,15.825 C57.85,15.03 59.014,14.548 60.836,14.548 C61.596,14.548 62.051,14.597 62.61,14.67 C63.077,14.729 63.468,14.838 63.836,14.875 C63.974,14.887 64.02,14.947 64.02,15.018 C64.02,15.118 63.983,15.259 63.959,15.683 C63.934,16.082 63.945,16.743 63.922,16.984 C63.91,17.166 63.887,17.261 63.776,17.261 C63.677,17.261 63.653,17.165 63.653,16.995 C63.641,16.622 63.481,16.2 63.177,15.888 C62.772,15.465 61.817,15.141 60.691,15.141 C59.626,15.141 58.928,15.407 58.389,15.888 C57.496,16.696 57.264,17.838 57.264,19.01 C57.264,21.88 59.479,23.305 61.12,23.305 C62.209,23.305 62.869,23.182 63.357,22.627 C63.568,22.398 63.726,22.047 63.775,21.833 C63.812,21.639 63.836,21.59 63.933,21.59 C64.019,21.59 64.043,21.675 64.043,21.77 C64.043,21.916 63.897,22.964 63.774,23.375 C63.712,23.581 63.663,23.641 63.454,23.723 C62.969,23.917 62.039,24 61.252,24 C59.575,24 58.172,23.641 57.055,22.688" id="Shape" fill="#676561" fill-rule="nonzero"></path>
        <path d="M67.777,18.214 C67.777,16.382 67.777,16.043 67.755,15.658 C67.727,15.247 67.607,15.042 67.336,14.982 C67.201,14.947 67.042,14.935 66.894,14.935 C66.774,14.935 66.698,14.91 66.698,14.813 C66.698,14.741 66.798,14.717 66.995,14.717 C67.462,14.717 68.229,14.752 68.586,14.752 C68.893,14.752 69.614,14.717 70.079,14.717 C70.239,14.717 70.336,14.74 70.336,14.813 C70.336,14.91 70.263,14.935 70.142,14.935 C70.016,14.935 69.919,14.947 69.773,14.97 C69.443,15.03 69.343,15.235 69.32,15.658 C69.297,16.043 69.297,16.382 69.297,18.214 L69.297,20.335 C69.297,21.504 69.297,22.457 69.344,22.976 C69.385,23.301 69.469,23.518 69.835,23.57 C70.005,23.591 70.273,23.618 70.461,23.618 C70.594,23.618 70.655,23.653 70.655,23.713 C70.655,23.8 70.556,23.833 70.422,23.833 C69.615,23.833 68.842,23.8 68.516,23.8 C68.231,23.8 67.463,23.833 66.97,23.833 C66.811,23.833 66.724,23.8 66.724,23.713 C66.724,23.653 66.776,23.618 66.924,23.618 C67.106,23.618 67.252,23.592 67.362,23.57 C67.608,23.518 67.68,23.312 67.716,22.965 C67.778,22.458 67.778,21.505 67.778,20.336 L67.778,18.214 L67.777,18.214 Z" id="Shape" fill="#676561" fill-rule="nonzero"></path>
        <path d="M74.866,18.214 C74.866,16.382 74.866,16.043 74.84,15.658 C74.817,15.247 74.719,15.054 74.315,14.97 C74.215,14.947 74.01,14.935 73.838,14.935 C73.703,14.935 73.629,14.91 73.629,14.826 C73.629,14.741 73.715,14.718 73.9,14.718 C74.548,14.718 75.317,14.753 75.661,14.753 C76.054,14.753 78.489,14.753 78.721,14.741 C78.954,14.718 79.15,14.693 79.249,14.67 C79.308,14.656 79.384,14.623 79.444,14.623 C79.506,14.623 79.518,14.67 79.518,14.73 C79.518,14.813 79.457,14.958 79.42,15.512 C79.407,15.634 79.383,16.164 79.358,16.307 C79.345,16.37 79.319,16.442 79.236,16.442 C79.148,16.442 79.125,16.381 79.125,16.271 C79.125,16.188 79.114,15.982 79.051,15.837 C78.966,15.622 78.844,15.476 78.233,15.405 C78.024,15.377 76.739,15.357 76.493,15.357 C76.432,15.357 76.407,15.392 76.407,15.475 L76.407,18.527 C76.407,18.61 76.421,18.659 76.493,18.659 C76.764,18.659 78.171,18.659 78.452,18.636 C78.749,18.611 78.931,18.577 79.039,18.454 C79.126,18.357 79.177,18.3 79.237,18.3 C79.284,18.3 79.32,18.323 79.32,18.395 C79.32,18.465 79.26,18.66 79.223,19.275 C79.2,19.515 79.176,19.998 79.176,20.081 C79.176,20.18 79.176,20.311 79.063,20.311 C78.978,20.311 78.954,20.262 78.954,20.203 C78.942,20.081 78.942,19.926 78.907,19.767 C78.845,19.528 78.675,19.348 78.22,19.299 C77.989,19.275 76.774,19.262 76.481,19.262 C76.42,19.262 76.407,19.312 76.407,19.381 L76.407,20.334 C76.407,20.744 76.397,21.855 76.407,22.203 C76.432,23.034 76.63,23.216 77.876,23.216 C78.194,23.216 78.708,23.216 79.028,23.072 C79.346,22.926 79.495,22.674 79.579,22.179 C79.602,22.045 79.628,21.997 79.714,21.997 C79.812,21.997 79.812,22.096 79.812,22.215 C79.812,22.494 79.714,23.31 79.653,23.555 C79.566,23.869 79.459,23.869 78.992,23.869 C77.143,23.869 76.323,23.797 75.601,23.797 C75.318,23.797 74.549,23.83 74.058,23.83 C73.901,23.83 73.816,23.797 73.816,23.71 C73.816,23.65 73.863,23.615 74.011,23.615 C74.195,23.615 74.341,23.589 74.452,23.567 C74.696,23.515 74.756,23.251 74.806,22.903 C74.868,22.396 74.868,21.443 74.868,20.333 L74.868,18.214 L74.866,18.214 Z" id="Shape" fill="#676561" fill-rule="nonzero"></path>
        <path d="M85.466,15.394 L83.641,15.442 C82.933,15.465 82.637,15.526 82.453,15.793 C82.331,15.973 82.269,16.117 82.246,16.214 C82.221,16.309 82.184,16.359 82.112,16.359 C82.025,16.359 82,16.299 82,16.167 C82,15.974 82.234,14.877 82.258,14.781 C82.294,14.624 82.331,14.55 82.404,14.55 C82.503,14.55 82.625,14.672 82.932,14.695 C83.286,14.731 83.748,14.757 84.156,14.757 L89.004,14.757 C89.393,14.757 89.664,14.72 89.848,14.695 C90.032,14.661 90.129,14.636 90.178,14.636 C90.263,14.636 90.276,14.707 90.276,14.889 C90.276,15.143 90.239,15.974 90.239,16.287 C90.227,16.408 90.202,16.479 90.13,16.479 C90.032,16.479 90.007,16.419 89.993,16.237 L89.981,16.105 C89.958,15.793 89.627,15.454 88.538,15.431 L86.997,15.395 L86.997,20.337 C86.997,21.446 86.997,22.399 87.056,22.917 C87.095,23.254 87.167,23.519 87.535,23.57 C87.707,23.589 87.975,23.615 88.16,23.615 C88.293,23.615 88.355,23.651 88.355,23.713 C88.355,23.798 88.257,23.836 88.122,23.836 C87.316,23.836 86.546,23.798 86.203,23.798 C85.918,23.798 85.149,23.836 84.659,23.836 C84.5,23.836 84.414,23.798 84.414,23.713 C84.414,23.651 84.463,23.615 84.611,23.615 C84.793,23.615 84.941,23.589 85.049,23.57 C85.295,23.518 85.37,23.254 85.403,22.906 C85.466,22.399 85.466,21.446 85.466,20.337 L85.466,15.394 Z" id="Shape" fill="#676561" fill-rule="nonzero"></path>
        <path d="M95.807,20.709 C95.807,20.061 95.687,19.794 95.526,19.443 C95.441,19.25 93.797,16.596 93.371,15.971 C93.067,15.523 92.76,15.224 92.526,15.092 C92.368,15.005 92.159,14.935 92.012,14.935 C91.914,14.935 91.827,14.908 91.827,14.826 C91.827,14.753 91.914,14.718 92.06,14.718 C92.281,14.718 93.197,14.753 93.603,14.753 C93.86,14.753 94.361,14.718 94.912,14.718 C95.035,14.718 95.096,14.753 95.096,14.826 C95.096,14.897 95.012,14.908 94.827,14.958 C94.717,14.982 94.653,15.079 94.653,15.176 C94.653,15.272 94.716,15.415 94.802,15.584 C94.973,15.947 96.688,18.853 96.884,19.19 C97.004,18.902 98.549,16.247 98.718,15.877 C98.841,15.607 98.891,15.406 98.891,15.247 C98.891,15.127 98.841,14.994 98.634,14.947 C98.523,14.923 98.413,14.897 98.413,14.826 C98.413,14.741 98.475,14.718 98.62,14.718 C99.026,14.718 99.417,14.753 99.77,14.753 C100.039,14.753 100.848,14.718 101.082,14.718 C101.214,14.718 101.302,14.741 101.302,14.814 C101.302,14.898 101.204,14.936 101.07,14.936 C100.945,14.936 100.713,14.983 100.531,15.08 C100.273,15.2 100.138,15.343 99.871,15.672 C99.467,16.153 97.753,18.986 97.533,19.505 C97.347,19.94 97.347,20.315 97.347,20.71 L97.347,21.699 C97.347,21.89 97.347,22.399 97.384,22.906 C97.409,23.254 97.519,23.518 97.888,23.568 C98.058,23.591 98.326,23.618 98.497,23.618 C98.634,23.618 98.694,23.653 98.694,23.713 C98.694,23.8 98.596,23.833 98.435,23.833 C97.666,23.833 96.894,23.8 96.565,23.8 C96.259,23.8 95.487,23.833 95.034,23.833 C94.864,23.833 94.764,23.807 94.764,23.713 C94.764,23.653 94.826,23.618 94.961,23.618 C95.133,23.618 95.279,23.592 95.387,23.568 C95.633,23.518 95.744,23.254 95.768,22.906 C95.805,22.399 95.805,21.89 95.805,21.699 L95.805,20.709 L95.807,20.709 Z" id="Shape" fill="#676561" fill-rule="nonzero"></path>
        <path d="M70.984,4.715 C70.984,4.845 71.009,4.897 71.095,4.932 C71.351,5.016 71.72,5.051 72.025,5.051 C72.515,5.051 72.675,5.004 72.895,4.845 C73.262,4.58 73.618,4.029 73.618,3.038 C73.618,1.325 72.467,0.831 71.746,0.831 C71.438,0.831 71.219,0.846 71.096,0.882 C71.01,0.904 70.985,0.953 70.985,1.049 L70.985,4.715 L70.984,4.715 Z M69.542,3.762 C69.542,1.929 69.542,1.59 69.518,1.207 C69.491,0.795 69.394,0.602 68.991,0.518 C68.894,0.495 68.687,0.483 68.514,0.483 C68.379,0.483 68.305,0.46 68.305,0.373 C68.305,0.29 68.389,0.267 68.574,0.267 C69.224,0.267 69.993,0.302 70.251,0.302 C70.669,0.302 71.599,0.267 71.98,0.267 C72.75,0.267 73.57,0.337 74.23,0.785 C74.574,1.015 75.062,1.627 75.062,2.437 C75.062,3.329 74.683,4.147 73.447,5.137 C74.537,6.486 75.383,7.56 76.103,8.307 C76.79,9.007 77.291,9.092 77.473,9.129 C77.61,9.153 77.718,9.163 77.818,9.163 C77.914,9.163 77.965,9.2 77.965,9.261 C77.965,9.357 77.878,9.383 77.73,9.383 L76.568,9.383 C75.884,9.383 75.58,9.32 75.258,9.154 C74.73,8.877 74.266,8.307 73.581,7.379 C73.093,6.718 72.528,5.898 72.371,5.717 C72.309,5.645 72.235,5.632 72.149,5.632 L71.083,5.607 C71.022,5.607 70.985,5.632 70.985,5.706 L70.985,5.875 C70.985,6.996 70.985,7.948 71.047,8.455 C71.082,8.804 71.158,9.068 71.524,9.119 C71.708,9.143 71.979,9.165 72.126,9.165 C72.223,9.165 72.271,9.202 72.271,9.263 C72.271,9.347 72.186,9.385 72.027,9.385 C71.318,9.385 70.412,9.347 70.228,9.347 C69.994,9.347 69.225,9.385 68.734,9.385 C68.575,9.385 68.492,9.347 68.492,9.263 C68.492,9.202 68.54,9.165 68.688,9.165 C68.869,9.165 69.017,9.144 69.126,9.119 C69.371,9.068 69.433,8.804 69.481,8.455 C69.543,7.948 69.543,6.996 69.543,5.887 L69.543,3.762 L69.542,3.762 Z" id="Shape" fill="#676561" fill-rule="nonzero"></path>
        <path d="M86.482,5.051 C86.482,2.35 84.904,0.677 82.894,0.677 C81.486,0.677 79.884,1.448 79.884,4.449 C79.884,6.957 81.29,8.947 83.642,8.947 C84.498,8.947 86.482,8.535 86.482,5.051 M78.193,4.821 C78.193,2.76 79.578,0.094 83.251,0.094 C86.299,0.094 88.193,1.842 88.193,4.603 C88.193,7.367 86.236,9.547 83.127,9.547 C79.616,9.548 78.193,6.957 78.193,4.821" id="Shape" fill="#676561" fill-rule="nonzero"></path>
        <path d="M92.643,6.257 C92.643,5.605 92.52,5.34 92.36,4.991 C92.274,4.798 90.635,2.143 90.206,1.519 C89.9,1.072 89.597,0.771 89.362,0.636 C89.202,0.552 88.995,0.482 88.848,0.482 C88.746,0.482 88.662,0.459 88.662,0.372 C88.662,0.301 88.746,0.266 88.894,0.266 C89.116,0.266 90.034,0.301 90.437,0.301 C90.693,0.301 91.195,0.266 91.748,0.266 C91.869,0.266 91.93,0.301 91.93,0.372 C91.93,0.447 91.846,0.459 91.662,0.507 C91.553,0.53 91.492,0.625 91.492,0.725 C91.492,0.819 91.553,0.966 91.638,1.135 C91.81,1.495 93.521,4.403 93.717,4.738 C93.839,4.45 95.382,1.797 95.554,1.423 C95.677,1.158 95.725,0.954 95.725,0.796 C95.725,0.676 95.677,0.543 95.467,0.495 C95.359,0.473 95.247,0.448 95.247,0.373 C95.247,0.29 95.308,0.267 95.456,0.267 C95.86,0.267 96.25,0.302 96.605,0.302 C96.876,0.302 97.681,0.267 97.915,0.267 C98.05,0.267 98.138,0.29 98.138,0.362 C98.138,0.449 98.038,0.484 97.905,0.484 C97.781,0.484 97.551,0.532 97.367,0.627 C97.109,0.749 96.973,0.892 96.705,1.22 C96.301,1.703 94.588,4.534 94.367,5.053 C94.184,5.488 94.184,5.86 94.184,6.259 L94.184,7.247 C94.184,7.442 94.184,7.947 94.218,8.454 C94.245,8.803 94.355,9.067 94.72,9.118 C94.892,9.142 95.163,9.166 95.333,9.166 C95.467,9.166 95.528,9.199 95.528,9.262 C95.528,9.346 95.431,9.384 95.27,9.384 C94.501,9.384 93.731,9.346 93.4,9.346 C93.094,9.346 92.322,9.384 91.868,9.384 C91.696,9.384 91.598,9.358 91.598,9.262 C91.598,9.2 91.66,9.166 91.796,9.166 C91.966,9.166 92.112,9.143 92.223,9.118 C92.468,9.067 92.577,8.803 92.604,8.454 C92.641,7.947 92.641,7.442 92.641,7.247 L92.641,6.257 L92.643,6.257 Z" id="Shape" fill="#676561" fill-rule="nonzero"></path>
        <path d="M103.354,5.633 C103.415,5.633 103.426,5.593 103.415,5.557 L102.313,2.579 C102.301,2.532 102.288,2.472 102.25,2.472 C102.215,2.472 102.191,2.533 102.177,2.579 L101.052,5.546 C101.04,5.593 101.052,5.633 101.103,5.633 L103.354,5.633 Z M100.855,6.233 C100.796,6.233 100.769,6.256 100.744,6.331 L100.086,8.053 C99.961,8.356 99.902,8.647 99.902,8.789 C99.902,9.006 100.011,9.164 100.388,9.164 L100.572,9.164 C100.72,9.164 100.759,9.186 100.759,9.26 C100.759,9.356 100.685,9.379 100.549,9.379 C100.158,9.379 99.631,9.342 99.253,9.342 C99.117,9.342 98.445,9.379 97.809,9.379 C97.651,9.379 97.575,9.356 97.575,9.26 C97.575,9.187 97.624,9.164 97.723,9.164 C97.831,9.164 98.004,9.152 98.102,9.141 C98.664,9.066 98.9,8.655 99.143,8.053 L102.214,0.483 C102.362,0.13 102.434,0 102.559,0 C102.666,0 102.741,0.106 102.863,0.384 C103.158,1.049 105.116,5.969 105.9,7.8 C106.366,8.888 106.717,9.053 106.976,9.116 C107.161,9.152 107.344,9.164 107.489,9.164 C107.587,9.164 107.649,9.172 107.649,9.26 C107.649,9.356 107.54,9.379 107.087,9.379 C106.645,9.379 105.752,9.379 104.775,9.356 C104.554,9.342 104.407,9.342 104.407,9.26 C104.407,9.187 104.455,9.164 104.579,9.153 C104.664,9.128 104.75,9.018 104.687,8.874 L103.71,6.32 C103.685,6.258 103.647,6.234 103.585,6.234 L100.855,6.234 L100.855,6.233 Z" id="Shape" fill="#676561" fill-rule="nonzero"></path>
        <path d="M111.471,5.884 C111.471,7.426 111.471,8.259 111.729,8.477 C111.938,8.655 112.254,8.742 113.209,8.742 C113.857,8.742 114.336,8.73 114.643,8.401 C114.788,8.247 114.936,7.909 114.959,7.679 C114.974,7.571 114.996,7.499 115.096,7.499 C115.181,7.499 115.193,7.559 115.193,7.704 C115.193,7.838 115.108,8.741 115.009,9.091 C114.936,9.356 114.877,9.417 114.238,9.417 C112.475,9.417 111.668,9.344 110.677,9.344 C110.393,9.344 109.621,9.382 109.132,9.382 C108.977,9.382 108.89,9.344 108.89,9.26 C108.89,9.198 108.937,9.164 109.085,9.164 C109.267,9.164 109.415,9.141 109.524,9.116 C109.77,9.065 109.83,8.801 109.879,8.452 C109.941,7.945 109.941,6.993 109.941,5.884 L109.941,3.762 C109.941,1.929 109.941,1.59 109.916,1.207 C109.889,0.795 109.792,0.602 109.389,0.518 C109.29,0.495 109.145,0.483 108.985,0.483 C108.85,0.483 108.778,0.46 108.778,0.373 C108.778,0.29 108.863,0.267 109.047,0.267 C109.621,0.267 110.393,0.302 110.725,0.302 C111.019,0.302 111.912,0.267 112.39,0.267 C112.56,0.267 112.648,0.29 112.648,0.373 C112.648,0.46 112.572,0.483 112.427,0.483 C112.29,0.483 112.095,0.495 111.948,0.518 C111.619,0.58 111.522,0.784 111.493,1.207 C111.47,1.59 111.47,1.929 111.47,3.762 L111.47,5.884 L111.471,5.884 Z" id="Shape" fill="#676561" fill-rule="nonzero"></path>
        <path d="M2.84,6.333 C2.84,3.125 5.106,0.91 8.313,0.795 L8.313,0.285 L0.002,0.285 L0.002,11.377 L5.803,11.377 C4.187,10.078 2.84,8.439 2.84,6.333" id="Shape" fill="#676561" fill-rule="nonzero"></path>
        <path d="M7.176,12.377 L1.35,18.685 C2.805,21.338 4.77,22.497 8.313,22.328 L8.313,13.093 C7.942,12.869 7.559,12.629 7.176,12.377" id="Shape" fill="#676561" fill-rule="nonzero"></path>
        <path d="M6.346,11.795 L0,11.795 L0,19.523 L6.823,12.134 C6.662,12.024 6.504,11.91 6.346,11.795" id="Shape" fill="#676561" fill-rule="nonzero"></path>
        <path d="M1.574,21.714 L1.275,18.76 L0,20.144 L0,23.786 L8.312,23.786 L8.312,23.204 C4.955,23.327 2.693,21.801 1.574,21.714" id="Shape" fill="#676561" fill-rule="nonzero"></path>
        <path d="M17.207,17.154 C17.259,17.621 17.359,18.102 17.523,18.591 C17.695,19.106 17.99,19.612 18.361,20.084 L21.068,17.154 L17.207,17.154 Z" id="Shape" fill="#676561" fill-rule="nonzero"></path>
        <path d="M8.736,22.305 C10.381,22.102 11.762,20.132 11.762,17.795 C11.762,17.579 11.732,17.363 11.687,17.154 L8.736,17.154 L8.736,22.305 Z" id="Shape" fill="#676561" fill-rule="nonzero"></path>
        <path d="M11.577,16.738 C11.002,15.038 9.242,13.713 8.736,13.36 L8.736,16.738 L11.577,16.738 Z" id="Shape" fill="#676561" fill-rule="nonzero"></path>
        <path d="M5.253,6.036 C5.311,7.997 6.868,9.164 8.313,10.256 L8.313,1.695 C6.515,1.962 5.184,3.693 5.253,6.036" id="Shape" fill="#676561" fill-rule="nonzero"></path>
        <path d="M24.856,12.127 L25.038,12.851 L26.016,11.795 L23.929,11.795 C24.248,11.881 24.562,11.988 24.856,12.127" id="Shape" fill="#676561" fill-rule="nonzero"></path>
        <path d="M13.484,4.92 C12.32,3.141 11.14,1.592 8.736,1.642 L8.736,10.063 L13.484,4.92 Z" id="Shape" fill="#676561" fill-rule="nonzero"></path>
        <path d="M10.053,11.377 L29.963,11.377 L29.963,0.285 L18.34,0.285 L8.814,10.601 C9.174,10.817 9.6,11.079 10.053,11.377" id="Shape" fill="#676561" fill-rule="nonzero"></path>
        <path d="M13.271,2.176 L13.593,4.803 L17.764,0.285 L8.736,0.285 L8.736,0.795 C10.492,0.84 11.403,1.6 13.271,2.176" id="Shape" fill="#676561" fill-rule="nonzero"></path>
        <path d="M28.1,21.723 C28.478,21.723 28.78,22.025 28.78,22.395 C28.78,22.766 28.478,23.067 28.1,23.067 C27.723,23.067 27.418,22.766 27.418,22.395 C27.418,22.024 27.723,21.723 28.1,21.723 L28.1,21.723 Z M18.635,20.407 C19.869,21.769 21.756,22.697 23.286,22.19 C25.135,21.578 25.975,20.582 26.594,18.695 L26.828,20.483 C25.867,21.686 24.996,22.22 23.418,22.756 C21.344,23.455 19.086,22.931 17.514,21.619 L15.516,23.784 L29.963,23.784 L29.963,17.153 L21.637,17.153 L18.635,20.407 Z" id="Shape" fill="#676561" fill-rule="nonzero"></path>
        <path d="M24.827,13.082 C23.273,12.144 21.267,11.835 19.781,12.397 C18.068,13.05 17.106,14.737 17.178,16.738 L21.45,16.738 L24.827,13.082 Z" id="Shape" fill="#676561" fill-rule="nonzero"></path>
        <polygon id="Shape" fill="#676561" fill-rule="nonzero" points="26.588 11.795 22.025 16.736 29.963 16.736 29.963 11.795"></polygon>
        <path d="M15.789,19.167 C14.766,16.208 16.451,12.97 19.551,11.93 C19.705,11.878 19.863,11.835 20.024,11.795 L10.669,11.795 C12.431,13.049 14.319,14.854 14.237,17.2 C14.128,20.369 12.03,22.908 8.739,23.181 L8.739,23.785 L14.946,23.785 L17.202,21.34 C16.576,20.74 16.08,20.01 15.789,19.167" id="Shape" fill="#676561" fill-rule="nonzero"></path>
    </g>
</svg>