<?xml version="1.0" encoding="utf-8"?>
<!-- Generator: Adobe Illustrator 16.0.0, SVG Export Plug-In . SVG Version: 6.00 Build 0)  -->
<!DOCTYPE svg PUBLIC "-//W3C//DTD SVG 1.1 Tiny//EN" "http://www.w3.org/Graphics/SVG/1.1/DTD/svg11-tiny.dtd">
<svg version="1.1" baseProfile="tiny" id="Layer_1" xmlns="http://www.w3.org/2000/svg" xmlns:xlink="http://www.w3.org/1999/xlink"
	 x="0px" y="0px" width="140.717px" height="18px" viewBox="0 0 140.717 18" xml:space="preserve">
<g>
	<polygon fill="#FFFFFF" points="17.766,17.676 12.812,17.676 10.941,9.729 10.87,9.729 8.942,17.676 3.991,17.676 0,4.833 
		5.027,4.833 6.953,12.83 7.026,12.83 8.652,4.833 13.184,4.833 14.905,12.83 15.004,12.83 16.811,4.833 21.836,4.833 	"/>
	<rect x="33.602" fill="#FFFFFF" width="4.806" height="17.676"/>
	<rect x="39.443" fill="#FFFFFF" width="4.81" height="17.676"/>
	<path fill="#FFFFFF" d="M50.992,18c-4.014,0-6.872-2.299-6.872-6.733c0-4.056,2.955-6.758,7.021-6.758
		c3.252,0,6.312,1.657,6.409,5.521h-4.583c0-1.286-0.692-2.034-1.826-2.034c-1.82,0-2.22,1.708-2.22,3.271
		c0,2.054,0.567,3.246,2.12,3.246c1.256,0,1.926-0.866,2.048-1.91h4.606C57.2,16.067,54.442,18,50.992,18"/>
	<path fill="#FFFFFF" d="M66.094,11.242c0,1.383-0.275,3.271-2.168,3.271c-1.902,0-2.17-1.888-2.17-3.271
		c0-1.384,0.268-3.247,2.17-3.247C65.818,7.995,66.094,9.858,66.094,11.242 M70.894,11.242c0-3.561-2.162-6.733-6.968-6.733
		c-4.808,0-6.975,3.173-6.975,6.733c0,3.558,2.167,6.758,6.975,6.758C68.731,18,70.894,14.8,70.894,11.242"/>
	<path fill="#FFFFFF" d="M87.104,17.676v-6.954c0-1.213-0.123-2.377-1.652-2.377c-1.276,0-1.697,1.021-1.697,2.377v6.954h-4.832
		v-6.954c0-1.213-0.098-2.377-1.651-2.377c-1.279,0-1.699,1.021-1.699,2.377v6.954h-4.799V4.833h4.652v1.732h0.073
		c1.011-1.515,2.445-2.059,4.217-2.059c1.35,0,2.831,0.723,3.447,2.059c0.097-0.1,0.226-0.277,0.47-0.52
		c0.048-0.074,0.122-0.153,0.193-0.225c0.673-0.642,1.829-1.314,3.725-1.314c3.253,0,4.359,2.251,4.359,4.33v8.839H87.104z"/>
	<path fill="#FFFFFF" d="M101.198,9.858h-4.806c0.25-1.489,1.108-2.284,2.492-2.284C100.287,7.574,101.198,8.572,101.198,9.858
		 M105.806,12.326c-0.024-4.97-2.218-7.814-7.146-7.814c-4.16,0-6.871,3.041-6.871,6.779c0,4.281,3.004,6.709,7.097,6.709
		c2.954,0,5.618-1.263,6.629-3.982h-4.483c-0.421,0.614-1.312,0.913-2.096,0.913c-1.58,0-2.442-1.066-2.564-2.604H105.806z"/>
	<path fill="#FFFFFF" d="M29.461,9.858h-4.81c0.241-1.489,1.109-2.284,2.484-2.284C28.545,7.574,29.461,8.572,29.461,9.858
		 M34.063,12.326c-0.022-4.97-2.218-7.814-7.146-7.814c-4.169,0-6.879,3.041-6.879,6.779c0,4.281,3.01,6.709,7.097,6.709
		c2.962,0,5.625-1.263,6.629-3.982h-4.482c-0.424,0.614-1.305,0.913-2.099,0.913c-1.579,0-2.435-1.066-2.557-2.604H34.063z"/>
	<path fill="#FFFFFF" d="M110.346,12.504c-1.578,0-2.276-0.396-2.276-2.104V4.289h-1.615V2.873h1.615V0h1.579v2.873h1.902v1.416
		h-1.902v5.965c0,0.711,0.203,0.867,1.189,0.867h0.713v1.383H110.346z"/>
	<path fill="#FFFFFF" d="M114.335,8.44v4.063h-1.579V2.873h1.482V4.93c0,0,0.022,0,0.022-0.024c0.762-1.31,1.849-2.032,3.523-2.032
		v1.683C115.25,4.556,114.335,6.021,114.335,8.44"/>
	<path fill="#FFFFFF" d="M125.049,12.504v-1.408c-0.688,1.062-1.77,1.627-3.098,1.627c-2.517,0-3.354-1.456-3.354-3.465V2.873h1.579
		v6.512c0,1.29,0.737,1.954,1.968,1.954c1.877,0,2.809-1.287,2.809-3.017V2.873h1.578v9.631H125.049z"/>
	<path fill="#FFFFFF" d="M131.429,12.723c-2.146,0-3.967-0.857-4.064-3.263h1.58c0.046,1.436,1.229,1.881,2.59,1.881
		c0.978,0,2.312-0.22,2.312-1.436c0-1.236-1.552-1.405-3.131-1.778c-1.553-0.349-3.132-0.889-3.132-2.727
		c0-1.953,1.9-2.745,3.578-2.745c2.096,0,3.818,0.663,3.915,3.02h-1.577c-0.1-1.237-1.062-1.658-2.241-1.658
		c-0.963,0-2.024,0.298-2.024,1.262c0,1.138,1.678,1.356,3.133,1.683c1.575,0.371,3.132,0.866,3.132,2.718
		C135.498,11.984,133.475,12.723,131.429,12.723"/>
	<path fill="#FFFFFF" d="M139.512,12.504c-1.579,0-2.266-0.396-2.266-2.104V4.289h-1.627V2.873h1.627V0h1.578v2.873h1.893v1.416
		h-1.893v5.965c0,0.711,0.192,0.867,1.183,0.867h0.71v1.383H139.512z"/>
</g>
</svg>
