<?xml version="1.0" encoding="utf-8"?>
<!-- Generator: Adobe Illustrator 16.0.0, SVG Export Plug-In . SVG Version: 6.00 Build 0)  -->
<!DOCTYPE svg PUBLIC "-//W3C//DTD SVG 1.1 Tiny//EN" "http://www.w3.org/Graphics/SVG/1.1/DTD/svg11-tiny.dtd">
<svg version="1.1" baseProfile="tiny" id="Layer_1" xmlns="http://www.w3.org/2000/svg" xmlns:xlink="http://www.w3.org/1999/xlink"
	 x="0px" y="0px" width="115.192px" height="24px" viewBox="0 0 115.192 24" xml:space="preserve">
<g>
	<path fill="#FFFFFF" d="M37.84,0.939l-1.824,0.049c-0.709,0.025-1.002,0.084-1.188,0.35c-0.12,0.182-0.184,0.327-0.205,0.423
		c-0.024,0.097-0.063,0.146-0.138,0.146c-0.084,0-0.109-0.062-0.109-0.196c0-0.191,0.235-1.29,0.258-1.384
		c0.039-0.159,0.074-0.232,0.146-0.232c0.1,0,0.222,0.123,0.527,0.146c0.354,0.033,0.82,0.06,1.227,0.06h4.844
		c0.391,0,0.661-0.035,0.845-0.06c0.184-0.036,0.28-0.062,0.331-0.062c0.084,0,0.098,0.074,0.098,0.254
		c0,0.253-0.035,1.086-0.035,1.398c-0.012,0.12-0.037,0.193-0.113,0.193c-0.097,0-0.119-0.062-0.132-0.241l-0.013-0.135
		C42.333,1.338,42.002,1,40.914,0.978L39.37,0.939v4.941c0,1.112,0,2.064,0.062,2.581c0.035,0.339,0.11,0.604,0.479,0.654
		c0.172,0.022,0.441,0.048,0.623,0.048c0.137,0,0.195,0.033,0.195,0.096c0,0.082-0.1,0.119-0.232,0.119
		c-0.808,0-1.576-0.037-1.922-0.037c-0.28,0-1.053,0.037-1.541,0.037c-0.158,0-0.246-0.037-0.246-0.119
		c0-0.062,0.048-0.096,0.197-0.096c0.184,0,0.33-0.025,0.439-0.048c0.246-0.051,0.318-0.315,0.354-0.666
		c0.062-0.505,0.062-1.457,0.062-2.569V0.939z"/>
	<path fill="#FFFFFF" d="M51.938,4.098c0.036,0,0.073-0.023,0.073-0.082V3.762c0-1.831,0-2.17-0.022-2.555
		c-0.027-0.412-0.124-0.605-0.527-0.689c-0.099-0.023-0.307-0.035-0.479-0.035c-0.135,0-0.207-0.023-0.207-0.11
		c0-0.083,0.084-0.106,0.258-0.106c0.659,0,1.431,0.035,1.761,0.035c0.294,0,1.065-0.035,1.544-0.035
		c0.17,0,0.258,0.023,0.258,0.106c0,0.087-0.072,0.11-0.223,0.11c-0.098,0-0.209,0.012-0.354,0.035
		c-0.329,0.062-0.428,0.266-0.455,0.689c-0.022,0.385-0.022,0.724-0.022,2.555v2.119c0,1.112,0,2.064,0.062,2.583
		c0.035,0.337,0.109,0.602,0.477,0.652c0.171,0.024,0.443,0.048,0.623,0.048c0.133,0,0.197,0.033,0.197,0.096
		c0,0.084-0.1,0.119-0.246,0.119c-0.795,0-1.566-0.035-1.908-0.035c-0.282,0-1.054,0.035-1.533,0.035
		c-0.169,0-0.254-0.035-0.254-0.119c0-0.062,0.049-0.096,0.195-0.096c0.184,0,0.332-0.023,0.441-0.048
		c0.244-0.051,0.307-0.315,0.354-0.666c0.062-0.505,0.062-1.457,0.062-2.569v-1.06c0-0.048-0.037-0.07-0.073-0.07h-4.675
		c-0.038,0-0.073,0.011-0.073,0.07v1.06c0,1.112,0,2.064,0.062,2.583c0.035,0.337,0.11,0.602,0.477,0.652
		c0.17,0.024,0.438,0.048,0.622,0.048c0.137,0,0.198,0.033,0.198,0.096c0,0.084-0.099,0.119-0.245,0.119
		c-0.795,0-1.568-0.035-1.911-0.035c-0.28,0-1.052,0.035-1.54,0.035c-0.159,0-0.246-0.035-0.246-0.119
		c0-0.062,0.051-0.096,0.195-0.096c0.186,0,0.33-0.023,0.441-0.048c0.246-0.051,0.306-0.315,0.355-0.666
		c0.062-0.505,0.062-1.457,0.062-2.569V3.762c0-1.831,0-2.17-0.027-2.555c-0.024-0.412-0.122-0.605-0.526-0.689
		c-0.097-0.023-0.306-0.035-0.476-0.035c-0.135,0-0.209-0.023-0.209-0.11c0-0.083,0.086-0.106,0.258-0.106
		c0.66,0,1.432,0.035,1.762,0.035c0.293,0,1.066-0.035,1.543-0.035c0.17,0,0.256,0.023,0.256,0.106c0,0.087-0.074,0.11-0.219,0.11
		c-0.098,0-0.209,0.012-0.355,0.035c-0.332,0.062-0.43,0.266-0.453,0.689c-0.023,0.385-0.023,0.724-0.023,2.555v0.254
		c0,0.059,0.035,0.082,0.073,0.082H51.938z"/>
	<path fill="#FFFFFF" d="M58.001,3.762c0-1.833,0-2.172-0.025-2.555c-0.026-0.412-0.124-0.605-0.526-0.689
		c-0.098-0.023-0.307-0.035-0.477-0.035c-0.135,0-0.21-0.023-0.21-0.11c0-0.083,0.085-0.106,0.269-0.106
		c0.651,0,1.422,0.035,1.765,0.035c0.395,0,2.826,0,3.06-0.012c0.232-0.023,0.429-0.048,0.525-0.071
		c0.062-0.013,0.135-0.05,0.198-0.05c0.06,0,0.073,0.05,0.073,0.109c0,0.083-0.061,0.229-0.1,0.782
		c-0.011,0.121-0.037,0.653-0.061,0.8c-0.01,0.057-0.037,0.13-0.123,0.13c-0.085,0-0.108-0.061-0.108-0.168
		c0-0.084-0.015-0.291-0.073-0.437c-0.086-0.216-0.21-0.36-0.82-0.432c-0.209-0.025-1.494-0.049-1.738-0.049
		c-0.064,0-0.085,0.037-0.085,0.12v3.05c0,0.086,0.011,0.132,0.085,0.132c0.269,0,1.676,0,1.957-0.021
		c0.293-0.024,0.479-0.062,0.588-0.182c0.087-0.096,0.137-0.157,0.195-0.157c0.049,0,0.086,0.025,0.086,0.096
		c0,0.074-0.06,0.265-0.098,0.88c-0.023,0.241-0.047,0.725-0.047,0.809c0,0.098,0,0.228-0.113,0.228
		c-0.085,0-0.109-0.048-0.109-0.106c-0.012-0.121-0.012-0.275-0.051-0.435c-0.06-0.241-0.229-0.42-0.684-0.472
		c-0.231-0.023-1.445-0.031-1.737-0.031c-0.062,0-0.072,0.046-0.072,0.118v0.952c0,0.409-0.013,1.52,0,1.869
		c0.021,0.831,0.217,1.013,1.467,1.013c0.318,0,0.833,0,1.151-0.147c0.32-0.142,0.465-0.396,0.549-0.89
		c0.025-0.131,0.05-0.183,0.137-0.183c0.098,0,0.098,0.098,0.098,0.219c0,0.276-0.098,1.1-0.161,1.336
		c-0.085,0.316-0.192,0.316-0.661,0.316c-1.844,0-2.664-0.073-3.389-0.073c-0.281,0-1.052,0.038-1.542,0.038
		c-0.161,0-0.245-0.038-0.245-0.122c0-0.061,0.049-0.098,0.195-0.098c0.187,0,0.33-0.021,0.439-0.046
		c0.245-0.051,0.309-0.315,0.357-0.664c0.062-0.507,0.062-1.459,0.062-2.568V3.762z"/>
	<path fill="#FFFFFF" d="M36.311,23.688c-0.196-0.085-0.233-0.144-0.233-0.41c0-0.663,0.05-1.385,0.062-1.579
		c0.012-0.181,0.05-0.312,0.148-0.312c0.108,0,0.12,0.106,0.12,0.204c0,0.158,0.05,0.411,0.112,0.614
		c0.27,0.895,0.989,1.219,1.748,1.219c1.101,0,1.643-0.735,1.643-1.376c0-0.591-0.184-1.155-1.199-1.927l-0.564-0.436
		c-1.348-1.038-1.812-1.88-1.812-2.859c0-1.323,1.128-2.277,2.827-2.277c0.795,0,1.312,0.122,1.628,0.205
		c0.111,0.023,0.173,0.063,0.173,0.146c0,0.153-0.049,0.507-0.049,1.444c0,0.267-0.039,0.363-0.137,0.363
		c-0.084,0-0.119-0.071-0.119-0.219c0-0.106-0.064-0.479-0.32-0.793c-0.183-0.23-0.537-0.593-1.336-0.593
		c-0.906,0-1.455,0.521-1.455,1.241c0,0.557,0.28,0.979,1.297,1.736l0.343,0.256c1.472,1.12,2.007,1.927,2.007,3.072
		c0,0.699-0.27,1.533-1.151,2.098C39.432,23.894,38.748,24,38.096,24C37.389,24,36.836,23.917,36.311,23.688"/>
	<path fill="#FFFFFF" d="M51.709,19.504c0-2.699-1.582-4.376-3.588-4.376c-1.406,0-3.011,0.771-3.011,3.774
		c0,2.506,1.407,4.497,3.759,4.497C49.725,23.399,51.709,22.987,51.709,19.504 M43.422,19.273c0-2.061,1.383-4.726,5.056-4.726
		c3.046,0,4.942,1.749,4.942,4.511c0,2.758-1.957,4.941-5.066,4.941C44.842,24,43.422,21.408,43.422,19.273"/>
	<path fill="#FFFFFF" d="M57.055,22.688c-1.199-1.036-1.517-2.389-1.517-3.557c0-0.82,0.256-2.242,1.433-3.306
		c0.879-0.795,2.043-1.277,3.865-1.277c0.76,0,1.215,0.049,1.774,0.122c0.467,0.059,0.858,0.168,1.226,0.205
		c0.138,0.012,0.184,0.072,0.184,0.143c0,0.1-0.037,0.241-0.061,0.665c-0.025,0.399-0.014,1.06-0.037,1.301
		c-0.012,0.182-0.035,0.277-0.146,0.277c-0.099,0-0.123-0.096-0.123-0.266c-0.012-0.373-0.172-0.795-0.476-1.107
		c-0.405-0.423-1.36-0.747-2.486-0.747c-1.065,0-1.763,0.266-2.302,0.747c-0.893,0.808-1.125,1.95-1.125,3.122
		c0,2.87,2.215,4.295,3.856,4.295c1.089,0,1.749-0.123,2.237-0.678c0.211-0.229,0.369-0.58,0.418-0.794
		c0.037-0.194,0.061-0.243,0.158-0.243c0.086,0,0.11,0.085,0.11,0.18c0,0.146-0.146,1.194-0.269,1.605
		c-0.062,0.206-0.111,0.266-0.32,0.348C62.969,23.917,62.039,24,61.252,24C59.575,24,58.172,23.641,57.055,22.688"/>
	<path fill="#FFFFFF" d="M67.777,18.214c0-1.832,0-2.171-0.022-2.556c-0.028-0.411-0.148-0.616-0.419-0.676
		c-0.135-0.035-0.294-0.047-0.442-0.047c-0.12,0-0.196-0.025-0.196-0.122c0-0.072,0.1-0.096,0.297-0.096
		c0.467,0,1.234,0.035,1.591,0.035c0.307,0,1.028-0.035,1.493-0.035c0.16,0,0.257,0.023,0.257,0.096
		c0,0.097-0.073,0.122-0.194,0.122c-0.126,0-0.223,0.012-0.369,0.035c-0.33,0.06-0.43,0.265-0.453,0.688
		c-0.023,0.385-0.023,0.724-0.023,2.556v2.121c0,1.169,0,2.122,0.047,2.641c0.041,0.325,0.125,0.542,0.491,0.594
		c0.17,0.021,0.438,0.048,0.626,0.048c0.133,0,0.194,0.035,0.194,0.095c0,0.087-0.099,0.12-0.233,0.12
		c-0.807,0-1.58-0.033-1.906-0.033c-0.285,0-1.053,0.033-1.546,0.033c-0.159,0-0.246-0.033-0.246-0.12c0-0.06,0.052-0.095,0.2-0.095
		c0.182,0,0.328-0.026,0.438-0.048c0.246-0.052,0.318-0.258,0.354-0.605c0.062-0.507,0.062-1.46,0.062-2.629V18.214z"/>
	<path fill="#FFFFFF" d="M74.866,18.214c0-1.832,0-2.171-0.026-2.556c-0.023-0.411-0.121-0.604-0.525-0.688
		c-0.1-0.023-0.305-0.035-0.477-0.035c-0.135,0-0.209-0.025-0.209-0.109c0-0.085,0.086-0.108,0.271-0.108
		c0.648,0,1.417,0.035,1.761,0.035c0.393,0,2.828,0,3.06-0.012c0.233-0.023,0.429-0.048,0.528-0.071
		c0.059-0.014,0.135-0.047,0.195-0.047c0.062,0,0.074,0.047,0.074,0.107c0,0.083-0.061,0.228-0.098,0.782
		c-0.013,0.122-0.037,0.652-0.062,0.795c-0.013,0.063-0.039,0.135-0.122,0.135c-0.088,0-0.111-0.061-0.111-0.171
		c0-0.083-0.011-0.289-0.074-0.434c-0.085-0.215-0.207-0.361-0.818-0.432c-0.209-0.028-1.494-0.048-1.74-0.048
		c-0.061,0-0.086,0.035-0.086,0.118v3.052c0,0.083,0.014,0.132,0.086,0.132c0.271,0,1.678,0,1.959-0.023
		c0.297-0.025,0.479-0.059,0.587-0.182c0.087-0.097,0.138-0.154,0.198-0.154c0.047,0,0.083,0.023,0.083,0.095
		c0,0.07-0.06,0.265-0.097,0.88c-0.023,0.24-0.047,0.723-0.047,0.806c0,0.099,0,0.23-0.113,0.23c-0.085,0-0.109-0.049-0.109-0.108
		c-0.012-0.122-0.012-0.277-0.047-0.436c-0.062-0.239-0.232-0.419-0.687-0.468c-0.231-0.024-1.446-0.037-1.739-0.037
		c-0.061,0-0.074,0.05-0.074,0.119v0.953c0,0.41-0.01,1.521,0,1.869c0.025,0.831,0.223,1.013,1.469,1.013
		c0.318,0,0.832,0,1.152-0.144c0.318-0.146,0.467-0.398,0.551-0.893c0.023-0.134,0.049-0.182,0.135-0.182
		c0.098,0,0.098,0.099,0.098,0.218c0,0.279-0.098,1.095-0.159,1.34c-0.087,0.314-0.194,0.314-0.661,0.314
		c-1.849,0-2.669-0.072-3.391-0.072c-0.283,0-1.052,0.033-1.543,0.033c-0.157,0-0.242-0.033-0.242-0.12
		c0-0.06,0.047-0.095,0.195-0.095c0.184,0,0.33-0.026,0.441-0.048c0.244-0.052,0.304-0.316,0.354-0.664
		c0.062-0.507,0.062-1.46,0.062-2.57V18.214z"/>
	<path fill="#FFFFFF" d="M85.466,15.394l-1.825,0.048c-0.708,0.023-1.004,0.084-1.188,0.351c-0.122,0.18-0.184,0.324-0.207,0.421
		c-0.025,0.095-0.062,0.145-0.134,0.145c-0.087,0-0.112-0.06-0.112-0.192c0-0.193,0.234-1.29,0.258-1.386
		c0.036-0.157,0.073-0.231,0.146-0.231c0.099,0,0.221,0.122,0.528,0.145c0.354,0.036,0.816,0.062,1.224,0.062h4.848
		c0.389,0,0.66-0.037,0.844-0.062c0.184-0.034,0.281-0.059,0.33-0.059c0.085,0,0.098,0.071,0.098,0.253
		c0,0.254-0.037,1.085-0.037,1.398c-0.012,0.121-0.037,0.192-0.109,0.192c-0.098,0-0.123-0.06-0.137-0.242l-0.012-0.132
		c-0.023-0.312-0.354-0.651-1.443-0.674l-1.541-0.036v4.942c0,1.109,0,2.062,0.059,2.58c0.039,0.337,0.111,0.602,0.479,0.653
		c0.172,0.019,0.44,0.045,0.625,0.045c0.133,0,0.195,0.036,0.195,0.098c0,0.085-0.098,0.123-0.233,0.123
		c-0.806,0-1.576-0.038-1.919-0.038c-0.285,0-1.054,0.038-1.544,0.038c-0.159,0-0.245-0.038-0.245-0.123
		c0-0.062,0.049-0.098,0.197-0.098c0.182,0,0.33-0.026,0.438-0.045c0.246-0.052,0.321-0.316,0.354-0.664
		c0.063-0.507,0.063-1.46,0.063-2.569V15.394z"/>
	<path fill="#FFFFFF" d="M95.807,20.709c0-0.648-0.12-0.915-0.281-1.266c-0.085-0.193-1.729-2.847-2.155-3.472
		c-0.304-0.448-0.611-0.747-0.845-0.879c-0.158-0.087-0.367-0.157-0.514-0.157c-0.098,0-0.185-0.027-0.185-0.109
		c0-0.073,0.087-0.108,0.233-0.108c0.221,0,1.137,0.035,1.543,0.035c0.257,0,0.758-0.035,1.309-0.035
		c0.123,0,0.184,0.035,0.184,0.108c0,0.071-0.084,0.082-0.269,0.132c-0.11,0.024-0.174,0.121-0.174,0.218
		c0,0.096,0.063,0.239,0.149,0.408c0.171,0.363,1.886,3.269,2.082,3.606c0.12-0.288,1.665-2.943,1.834-3.313
		c0.123-0.27,0.173-0.471,0.173-0.63c0-0.12-0.05-0.253-0.257-0.3c-0.111-0.024-0.221-0.05-0.221-0.121
		c0-0.085,0.062-0.108,0.207-0.108c0.406,0,0.797,0.035,1.15,0.035c0.269,0,1.078-0.035,1.312-0.035c0.132,0,0.22,0.023,0.22,0.096
		c0,0.084-0.098,0.122-0.232,0.122c-0.125,0-0.357,0.047-0.539,0.144c-0.258,0.12-0.393,0.263-0.66,0.592
		c-0.404,0.481-2.118,3.314-2.338,3.833c-0.186,0.435-0.186,0.81-0.186,1.205v0.989c0,0.191,0,0.7,0.037,1.207
		c0.025,0.348,0.135,0.612,0.504,0.662c0.17,0.023,0.438,0.05,0.609,0.05c0.137,0,0.197,0.035,0.197,0.095
		c0,0.087-0.098,0.12-0.259,0.12c-0.769,0-1.541-0.033-1.87-0.033c-0.306,0-1.078,0.033-1.531,0.033c-0.17,0-0.27-0.026-0.27-0.12
		c0-0.06,0.062-0.095,0.197-0.095c0.172,0,0.318-0.026,0.426-0.05c0.246-0.05,0.357-0.314,0.381-0.662
		c0.037-0.507,0.037-1.016,0.037-1.207V20.709z"/>
	<path fill="#FFFFFF" d="M70.984,4.715c0,0.13,0.025,0.182,0.111,0.217c0.256,0.084,0.625,0.119,0.93,0.119
		c0.49,0,0.65-0.047,0.87-0.206c0.367-0.265,0.723-0.816,0.723-1.807c0-1.713-1.151-2.207-1.872-2.207
		c-0.308,0-0.527,0.015-0.65,0.051c-0.086,0.022-0.111,0.071-0.111,0.167V4.715z M69.542,3.762c0-1.833,0-2.172-0.024-2.555
		c-0.027-0.412-0.124-0.605-0.527-0.689c-0.097-0.023-0.304-0.035-0.477-0.035c-0.135,0-0.209-0.023-0.209-0.11
		c0-0.083,0.084-0.106,0.269-0.106c0.65,0,1.419,0.035,1.677,0.035c0.418,0,1.348-0.035,1.729-0.035c0.77,0,1.59,0.07,2.25,0.518
		c0.344,0.23,0.832,0.842,0.832,1.652c0,0.892-0.379,1.71-1.615,2.7c1.09,1.349,1.936,2.423,2.656,3.17
		c0.687,0.7,1.188,0.785,1.37,0.822c0.137,0.024,0.245,0.034,0.345,0.034c0.096,0,0.147,0.037,0.147,0.098
		c0,0.096-0.087,0.122-0.235,0.122h-1.162c-0.684,0-0.988-0.063-1.31-0.229c-0.528-0.277-0.992-0.847-1.677-1.775
		c-0.488-0.661-1.053-1.481-1.21-1.662c-0.062-0.072-0.136-0.085-0.222-0.085l-1.066-0.025c-0.061,0-0.098,0.025-0.098,0.099v0.169
		c0,1.121,0,2.073,0.062,2.58c0.035,0.349,0.111,0.613,0.477,0.664c0.184,0.024,0.455,0.046,0.602,0.046
		c0.097,0,0.145,0.037,0.145,0.098c0,0.084-0.085,0.122-0.244,0.122c-0.709,0-1.615-0.038-1.799-0.038
		c-0.234,0-1.003,0.038-1.494,0.038c-0.159,0-0.242-0.038-0.242-0.122c0-0.061,0.048-0.098,0.196-0.098
		c0.181,0,0.329-0.021,0.438-0.046c0.245-0.051,0.307-0.315,0.355-0.664c0.062-0.507,0.062-1.459,0.062-2.568V3.762z"/>
	<path fill="#FFFFFF" d="M86.482,5.051c0-2.701-1.578-4.374-3.588-4.374c-1.408,0-3.01,0.771-3.01,3.772
		c0,2.508,1.406,4.498,3.758,4.498C84.498,8.947,86.482,8.535,86.482,5.051 M78.193,4.821c0-2.061,1.385-4.727,5.058-4.727
		c3.048,0,4.942,1.748,4.942,4.509c0,2.764-1.957,4.944-5.066,4.944C79.616,9.548,78.193,6.957,78.193,4.821"/>
	<path fill="#FFFFFF" d="M92.643,6.257c0-0.652-0.123-0.917-0.283-1.266c-0.086-0.193-1.725-2.848-2.154-3.472
		c-0.306-0.447-0.609-0.748-0.844-0.883c-0.16-0.084-0.367-0.154-0.514-0.154c-0.102,0-0.186-0.023-0.186-0.11
		c0-0.071,0.084-0.106,0.232-0.106c0.222,0,1.14,0.035,1.543,0.035c0.256,0,0.758-0.035,1.311-0.035
		c0.121,0,0.182,0.035,0.182,0.106c0,0.075-0.084,0.087-0.268,0.135c-0.109,0.023-0.17,0.118-0.17,0.218
		c0,0.094,0.061,0.241,0.146,0.41c0.172,0.36,1.883,3.268,2.079,3.603c0.122-0.288,1.665-2.941,1.837-3.315
		c0.123-0.265,0.171-0.469,0.171-0.627c0-0.12-0.048-0.253-0.258-0.301c-0.108-0.022-0.22-0.047-0.22-0.122
		c0-0.083,0.061-0.106,0.209-0.106c0.404,0,0.794,0.035,1.149,0.035c0.271,0,1.076-0.035,1.31-0.035
		c0.135,0,0.223,0.023,0.223,0.095c0,0.087-0.1,0.122-0.233,0.122c-0.124,0-0.354,0.048-0.538,0.143
		c-0.258,0.122-0.394,0.265-0.662,0.593c-0.404,0.483-2.117,3.314-2.338,3.833c-0.183,0.435-0.183,0.807-0.183,1.206v0.988
		c0,0.195,0,0.7,0.034,1.207c0.027,0.349,0.137,0.613,0.502,0.664c0.172,0.024,0.443,0.048,0.613,0.048
		c0.134,0,0.195,0.033,0.195,0.096c0,0.084-0.097,0.122-0.258,0.122c-0.769,0-1.539-0.038-1.87-0.038
		c-0.306,0-1.078,0.038-1.532,0.038c-0.172,0-0.27-0.026-0.27-0.122c0-0.062,0.062-0.096,0.198-0.096
		c0.17,0,0.316-0.023,0.427-0.048c0.245-0.051,0.354-0.315,0.381-0.664c0.037-0.507,0.037-1.012,0.037-1.207V6.257z"/>
	<path fill="#FFFFFF" d="M103.354,5.633c0.061,0,0.072-0.04,0.061-0.076l-1.102-2.978c-0.012-0.047-0.025-0.107-0.063-0.107
		c-0.035,0-0.059,0.061-0.073,0.107l-1.125,2.967c-0.012,0.047,0,0.087,0.051,0.087H103.354z M100.855,6.233
		c-0.059,0-0.086,0.023-0.111,0.098l-0.658,1.722c-0.125,0.303-0.184,0.594-0.184,0.736c0,0.217,0.109,0.375,0.486,0.375h0.184
		c0.148,0,0.187,0.022,0.187,0.096c0,0.096-0.074,0.119-0.21,0.119c-0.391,0-0.918-0.037-1.296-0.037
		c-0.136,0-0.808,0.037-1.444,0.037c-0.158,0-0.234-0.023-0.234-0.119c0-0.073,0.049-0.096,0.148-0.096
		c0.108,0,0.281-0.012,0.379-0.023c0.562-0.075,0.798-0.486,1.041-1.088l3.071-7.57C102.362,0.13,102.434,0,102.559,0
		c0.107,0,0.182,0.106,0.304,0.384c0.295,0.665,2.253,5.585,3.037,7.416c0.466,1.088,0.817,1.253,1.076,1.316
		c0.185,0.036,0.368,0.048,0.513,0.048c0.098,0,0.16,0.008,0.16,0.096c0,0.096-0.109,0.119-0.562,0.119
		c-0.442,0-1.335,0-2.312-0.023c-0.221-0.014-0.368-0.014-0.368-0.096c0-0.073,0.048-0.096,0.172-0.107
		c0.085-0.025,0.171-0.135,0.108-0.279l-0.977-2.554c-0.025-0.062-0.063-0.086-0.125-0.086H100.855z"/>
	<path fill="#FFFFFF" d="M111.471,5.884c0,1.542,0,2.375,0.258,2.593c0.209,0.178,0.525,0.265,1.48,0.265
		c0.648,0,1.127-0.012,1.434-0.341c0.145-0.154,0.293-0.492,0.316-0.722c0.015-0.108,0.037-0.18,0.137-0.18
		c0.085,0,0.097,0.06,0.097,0.205c0,0.134-0.085,1.037-0.184,1.387c-0.073,0.265-0.132,0.326-0.771,0.326
		c-1.763,0-2.57-0.073-3.561-0.073c-0.284,0-1.056,0.038-1.545,0.038c-0.155,0-0.242-0.038-0.242-0.122
		c0-0.062,0.047-0.096,0.195-0.096c0.182,0,0.33-0.023,0.439-0.048c0.246-0.051,0.306-0.315,0.355-0.664
		c0.062-0.507,0.062-1.459,0.062-2.568V3.762c0-1.833,0-2.172-0.025-2.555c-0.027-0.412-0.124-0.605-0.527-0.689
		c-0.099-0.023-0.244-0.035-0.404-0.035c-0.135,0-0.207-0.023-0.207-0.11c0-0.083,0.085-0.106,0.269-0.106
		c0.574,0,1.346,0.035,1.678,0.035c0.294,0,1.187-0.035,1.665-0.035c0.17,0,0.258,0.023,0.258,0.106c0,0.087-0.076,0.11-0.221,0.11
		c-0.137,0-0.332,0.012-0.479,0.035c-0.329,0.062-0.426,0.266-0.455,0.689c-0.023,0.383-0.023,0.722-0.023,2.555V5.884z"/>
	<path fill="#FFFFFF" d="M2.84,6.333c0-3.208,2.266-5.423,5.473-5.538v-0.51H0.002v11.092h5.801C4.187,10.078,2.84,8.439,2.84,6.333
		"/>
	<path fill="#FFFFFF" d="M7.176,12.377L1.35,18.685c1.455,2.653,3.42,3.812,6.963,3.643v-9.235
		C7.942,12.869,7.559,12.629,7.176,12.377"/>
	<path fill="#FFFFFF" d="M6.346,11.795H0v7.728l6.823-7.389C6.662,12.024,6.504,11.91,6.346,11.795"/>
	<path fill="#FFFFFF" d="M1.574,21.714L1.275,18.76L0,20.144v3.642h8.312v-0.582C4.955,23.327,2.693,21.801,1.574,21.714"/>
	<path fill="#FFFFFF" d="M17.207,17.154c0.052,0.467,0.152,0.948,0.316,1.437c0.172,0.515,0.467,1.021,0.838,1.493l2.707-2.93
		H17.207z"/>
	<path fill="#FFFFFF" d="M8.736,22.305c1.645-0.203,3.026-2.173,3.026-4.51c0-0.216-0.03-0.432-0.075-0.641H8.736V22.305z"/>
	<path fill="#FFFFFF" d="M11.577,16.738c-0.575-1.7-2.335-3.025-2.841-3.378v3.378H11.577z"/>
	<path fill="#FFFFFF" d="M5.253,6.036c0.058,1.961,1.615,3.128,3.06,4.22V1.695C6.515,1.962,5.184,3.693,5.253,6.036"/>
	<path fill="#FFFFFF" d="M24.856,12.127l0.182,0.724l0.978-1.056h-2.087C24.248,11.881,24.562,11.988,24.856,12.127"/>
	<path fill="#FFFFFF" d="M13.484,4.92c-1.164-1.779-2.344-3.328-4.748-3.278v8.421L13.484,4.92z"/>
	<path fill="#FFFFFF" d="M10.053,11.377h19.91V0.285H18.34L8.814,10.601C9.174,10.817,9.6,11.079,10.053,11.377"/>
	<path fill="#FFFFFF" d="M13.271,2.176l0.322,2.627l4.171-4.518H8.736v0.51C10.492,0.84,11.403,1.6,13.271,2.176"/>
	<path fill="#FFFFFF" d="M28.1,21.723c0.378,0,0.68,0.302,0.68,0.672c0,0.371-0.302,0.672-0.68,0.672
		c-0.377,0-0.682-0.301-0.682-0.672C27.418,22.024,27.723,21.723,28.1,21.723 M18.635,20.407c1.234,1.362,3.121,2.29,4.651,1.783
		c1.849-0.612,2.689-1.608,3.308-3.495l0.234,1.788c-0.961,1.203-1.832,1.737-3.41,2.273c-2.074,0.699-4.332,0.175-5.904-1.137
		l-1.998,2.165h14.447v-6.631h-8.326L18.635,20.407z"/>
	<path fill="#FFFFFF" d="M24.827,13.082c-1.554-0.938-3.56-1.247-5.046-0.685c-1.713,0.653-2.675,2.34-2.603,4.341h4.272
		L24.827,13.082z"/>
	<polygon fill="#FFFFFF" points="26.588,11.795 22.025,16.736 29.963,16.736 29.963,11.795 	"/>
	<path fill="#FFFFFF" d="M15.789,19.167c-1.023-2.959,0.662-6.197,3.762-7.237c0.154-0.052,0.312-0.095,0.473-0.135h-9.355
		c1.762,1.254,3.65,3.059,3.568,5.405c-0.109,3.169-2.207,5.708-5.498,5.981v0.604h6.207l2.256-2.445
		C16.576,20.74,16.08,20.01,15.789,19.167"/>
</g>
</svg>
