<?xml version="1.0" encoding="utf-8"?>
<!-- Generator: Adobe Illustrator 16.0.0, SVG Export Plug-In . SVG Version: 6.00 Build 0)  -->
<!DOCTYPE svg PUBLIC "-//W3C//DTD SVG 1.1 Tiny//EN" "http://www.w3.org/Graphics/SVG/1.1/DTD/svg11-tiny.dtd">
<svg version="1.1" baseProfile="tiny" id="Layer_1" xmlns="http://www.w3.org/2000/svg" xmlns:xlink="http://www.w3.org/1999/xlink"
	 x="0px" y="0px" width="82.29px" height="24px" viewBox="0 0 82.29 24" xml:space="preserve">
<g>
	<path fill="#FFFFFF" d="M27.993,6.937c-0.231,0.233-0.596,0.414-1.143,0.414c-0.446,0-0.873-0.139-1.161-0.428
		c-0.376-0.376-0.364-0.853-0.364-1.268V3.083h0.565v2.637c0,0.32-0.013,0.633,0.238,0.886c0.169,0.169,0.433,0.264,0.74,0.264
		s0.541-0.106,0.691-0.258c0.282-0.283,0.258-0.604,0.258-1.312V3.083h0.552V5.21C28.37,5.989,28.395,6.536,27.993,6.937"/>
	<polyline fill="#FFFFFF" points="32.405,7.269 30.428,3.937 30.44,7.269 29.925,7.269 29.925,3.083 30.484,3.083 32.461,6.428 
		32.449,3.083 32.964,3.083 32.964,7.269 32.405,7.269 	"/>
	<rect x="34.653" y="3.083" fill="#FFFFFF" width="0.564" height="4.187"/>
	<polyline fill="#FFFFFF" points="38.357,7.269 37.737,7.269 36.292,3.083 36.876,3.083 38.062,6.692 39.281,3.083 39.827,3.083 
		38.357,7.269 	"/>
	<polyline fill="#FFFFFF" points="40.924,7.269 40.924,3.083 43.241,3.083 43.241,3.546 41.476,3.546 41.476,4.865 43.133,4.865 
		43.133,5.317 41.476,5.317 41.476,6.792 43.291,6.792 43.291,7.269 40.924,7.269 	"/>
	<path fill="#FFFFFF" d="M46.873,7.269l-0.484-1.092c-0.288-0.646-0.427-0.703-0.991-0.703h-0.264v1.795h-0.553V3.083h0.929
		c0.56,0,0.993-0.007,1.331,0.332c0.207,0.208,0.327,0.484,0.327,0.835c0,0.289-0.082,0.533-0.258,0.724
		c-0.15,0.162-0.396,0.301-0.671,0.332c0.137,0.005,0.274,0.087,0.357,0.169C46.721,5.6,46.809,5.8,46.922,6.058l0.54,1.211H46.873
		 M46.426,3.748c-0.226-0.226-0.521-0.219-0.859-0.219h-0.434v1.5h0.194c0.402,0,0.811,0.012,1.074-0.252
		c0.131-0.131,0.206-0.325,0.206-0.527C46.608,4.024,46.521,3.841,46.426,3.748z"/>
	<path fill="#FFFFFF" d="M49.62,7.358c-0.741,0-1.237-0.402-1.287-0.452l0.271-0.39c0.075,0.051,0.482,0.358,0.991,0.358
		c0.516,0,0.816-0.308,0.816-0.691c0-0.458-0.514-0.684-0.965-0.903c-0.533-0.258-0.994-0.534-0.994-1.148
		c0-0.666,0.54-1.13,1.312-1.13c0.772,0,1.155,0.382,1.192,0.426l-0.282,0.364c-0.05-0.044-0.382-0.313-0.872-0.313
		c-0.458,0-0.785,0.227-0.785,0.603c0,0.396,0.371,0.542,0.785,0.756c0.371,0.188,1.192,0.474,1.192,1.297
		C50.994,6.824,50.485,7.357,49.62,7.358"/>
	<rect x="52.319" y="3.083" fill="#FFFFFF" width="0.564" height="4.187"/>
	<polyline fill="#FFFFFF" points="55.767,3.546 55.767,7.269 55.203,7.269 55.203,3.546 53.972,3.546 53.972,3.083 56.993,3.083 
		56.993,3.546 55.767,3.546 	"/>
	<polyline fill="#FFFFFF" points="59.43,5.612 59.43,7.269 58.871,7.269 58.871,5.612 57.546,3.083 58.164,3.083 59.185,5.052 
		60.187,3.083 60.755,3.083 59.43,5.612 	"/>
	<path fill="#FFFFFF" d="M65.439,7.351c-1.104,0-1.901-0.898-1.901-2.166c0-1.293,0.791-2.184,1.934-2.184
		c1.117,0,1.896,0.891,1.896,2.152C67.367,6.459,66.583,7.351,65.439,7.351 M65.433,3.478c-0.797,0-1.319,0.671-1.319,1.695
		c0,1.017,0.585,1.694,1.351,1.694c0.872,0,1.325-0.747,1.325-1.732C66.79,4.137,66.23,3.478,65.433,3.478z"/>
	<polyline fill="#FFFFFF" points="69.264,3.546 69.264,4.865 70.872,4.865 70.872,5.317 69.264,5.317 69.264,7.269 68.707,7.269 
		68.707,3.083 70.972,3.083 70.972,3.546 69.264,3.546 	"/>
	<path fill="#FFFFFF" d="M33.811,15.5c0,2.682-2.065,4.624-4.647,4.624c-2.631,0-4.649-1.967-4.649-4.524
		c0-2.681,2.068-4.624,4.649-4.624C31.795,10.975,33.811,12.941,33.811,15.5 M32.315,15.548c0-2.435-1.157-4.079-3.151-4.079
		c-2.164,0-3.147,1.99-3.147,4.079c0,2.437,1.156,4.091,3.147,4.091C31.33,19.639,32.315,17.643,32.315,15.548z"/>
	<path fill="#FFFFFF" d="M62.196,15.5c0,2.682-2.066,4.624-4.648,4.624c-2.629,0-4.648-1.967-4.648-4.524
		c0-2.681,2.066-4.624,4.648-4.624C60.178,10.975,62.196,12.941,62.196,15.5 M60.697,15.548c0-2.435-1.156-4.079-3.149-4.079
		c-2.165,0-3.148,1.99-3.148,4.079c0,2.437,1.156,4.091,3.148,4.091C59.711,19.639,60.697,17.643,60.697,15.548z"/>
	<path fill="#FFFFFF" d="M65.787,15.574h1.106c1.673,0,2.019-1.027,2.019-2.038c0-0.758-0.321-1.376-1.106-1.72
		c-0.42-0.174-0.813-0.197-1.354-0.197h-0.665V15.574 M67.805,17.031c-0.518-0.74-0.715-0.963-1.354-0.963h-0.665v2.955
		c0,0.247,0.074,0.368,0.369,0.42l1.009,0.196v0.346h-3.983v-0.346l0.909-0.196c0.296-0.076,0.367-0.173,0.367-0.42v-6.936
		c0-0.247-0.095-0.371-0.367-0.421l-0.909-0.198v-0.344h3.885c0.813,0,1.379,0.072,1.846,0.246c0.958,0.369,1.499,1.283,1.499,2.14
		c0,1.084-0.811,1.989-2.164,2.311v0.05c0.272,0.122,0.418,0.299,1.379,1.554l1.229,1.598c0.171,0.248,0.369,0.419,0.687,0.47
		l0.837,0.147v0.346H70.24c-0.247,0-0.37-0.073-0.591-0.372L67.805,17.031L67.805,17.031z"/>
	<path fill="#FFFFFF" d="M50.464,14.176h0.418v2.93h-0.418l-0.173-0.841c-0.072-0.32-0.27-0.444-0.565-0.444h-2.139v3.201
		c0,0.248,0.074,0.369,0.367,0.419l1.011,0.198v0.346h-3.986v-0.346l0.908-0.198c0.298-0.074,0.372-0.171,0.372-0.419v-6.935
		c0-0.247-0.1-0.371-0.372-0.421l-0.908-0.198v-0.344h6.715v2.211h-0.417l-0.346-1.248c-0.099-0.348-0.296-0.469-0.59-0.469h-2.754
		v3.707h2.139c0.296,0,0.493-0.116,0.565-0.435L50.464,14.176"/>
	<path fill="#FFFFFF" d="M73.092,19.985v-0.346l0.909-0.196c0.296-0.076,0.37-0.173,0.37-0.42v-6.936c0-0.247-0.1-0.371-0.37-0.421
		l-0.909-0.198v-0.344h4.157c1.132,0,1.943,0.146,2.604,0.443c1.675,0.766,2.436,2.411,2.436,4.031c0,1.578-0.588,3.052-2.089,3.844
		c-0.688,0.367-1.647,0.542-2.901,0.542H73.092 M75.675,11.619v7.476c0,0.321,0.073,0.397,0.395,0.397h1.081
		c1.032,0,1.796-0.125,2.336-0.52c0.911-0.666,1.304-1.817,1.304-3.348c0-1.499-0.393-2.922-1.622-3.638
		c-0.52-0.296-1.182-0.368-2.215-0.368H75.675L75.675,11.619z"/>
	<path fill="#FFFFFF" d="M37.305,19.639v0.346h-3.174v-0.346l0.786-0.173c0.296-0.075,0.518-0.172,0.691-0.397l2.657-3.396
		l-2.657-3.586c-0.174-0.247-0.396-0.371-0.665-0.445l-0.737-0.174v-0.344h3.912v0.344l-0.839,0.15
		c-0.269,0.048-0.244,0.121-0.095,0.318l1.965,2.783h0.05l2.04-2.733c0.148-0.196,0.148-0.296-0.074-0.345l-0.785-0.174v-0.344
		h3.171v0.344l-0.785,0.174c-0.297,0.074-0.519,0.173-0.689,0.395l-2.531,3.173l2.825,3.812c0.173,0.247,0.396,0.369,0.667,0.444
		l0.735,0.172v0.347h-3.912v-0.347l0.84-0.146c0.268-0.051,0.243-0.125,0.099-0.323l-2.145-3.001h-0.047l-2.189,3.001
		c-0.148,0.198-0.171,0.247,0.098,0.298L37.305,19.639"/>
	<path fill="#FFFFFF" d="M13.764,8.107c0,0,0,4.063,0,4.384c-0.31,0-3.188,0-3.188,0l-0.044,0.106
		c-0.051,0.129-0.146,0.248-0.478,0.248c-0.331,0-0.426-0.119-0.478-0.248l-0.043-0.106c0,0-2.873,0-3.183,0c0-0.32,0-4.384,0-4.384
		H6.004v0.112L5.761,8.145C5.726,8.038,5.625,7.959,5.506,7.959c-0.149,0-0.271,0.121-0.271,0.27c0,0.15,0.121,0.271,0.271,0.271
		c0.062,0,0.118-0.021,0.164-0.058l0.334,0.104v0.335l-0.24-0.043C5.723,8.75,5.637,8.686,5.534,8.681
		C5.383,8.675,5.256,8.789,5.25,8.939C5.244,9.088,5.358,9.215,5.507,9.222c0.078,0.004,0.15-0.027,0.203-0.078l0.294,0.054V9.54
		L5.751,9.529C5.705,9.453,5.621,9.404,5.525,9.404c-0.148,0-0.271,0.121-0.271,0.271c0,0.148,0.122,0.271,0.271,0.271
		c0.088,0,0.163-0.042,0.214-0.106l0.266,0.012v0.373l-0.26,0.009c-0.051-0.064-0.128-0.106-0.215-0.106
		c-0.15,0-0.271,0.122-0.271,0.271c0,0.149,0.121,0.271,0.271,0.271c0.095,0,0.179-0.049,0.226-0.122l0.249-0.011v0.344
		l-0.289,0.049c-0.048-0.048-0.115-0.078-0.19-0.078c-0.148,0-0.271,0.121-0.271,0.271s0.123,0.271,0.271,0.271
		c0.107,0,0.2-0.064,0.244-0.154l0.235-0.041v0.335l-0.32,0.098c-0.045-0.035-0.102-0.057-0.164-0.057
		c-0.149,0-0.271,0.122-0.271,0.271s0.122,0.271,0.271,0.271c0.12,0,0.221-0.079,0.256-0.188l0.229-0.068v0.321l-0.357,0.155
		c-0.044-0.028-0.097-0.043-0.152-0.039c-0.148,0.005-0.266,0.131-0.26,0.28c0.007,0.149,0.133,0.267,0.281,0.26
		c0.127-0.005,0.229-0.096,0.253-0.214l0.235-0.101v0.316c0,0,3.133,0,3.315,0c0.14,0.233,0.377,0.355,0.734,0.355
		c0.356,0,0.594-0.122,0.734-0.355c0.182,0,3.322,0,3.322,0v-4.73L13.764,8.107"/>
	<path fill="#FFFFFF" d="M7.882,6.683c-0.667,0-1.208,0.104-1.208,0.232c0,0.128,0.541,0.232,1.208,0.232s1.207-0.104,1.207-0.232
		C9.089,6.787,8.549,6.683,7.882,6.683"/>
	<path fill="#FFFFFF" d="M9.545,5.186L8.849,5.677l-0.007,0.05l0.166,0.075c0.032,0.015,0.033,0.041,0.017,0.057l-0.438,0.37
		L8.545,6.225L8.234,5.768C8.213,5.739,8.22,5.708,8.257,5.704l0.209-0.034V5.616l-0.54-0.763H7.837l-0.54,0.763v0.054l0.208,0.034
		C7.543,5.708,7.551,5.739,7.53,5.768L7.218,6.225L7.177,6.229l-0.408-0.37C6.751,5.843,6.751,5.817,6.784,5.802l0.167-0.075
		l-0.006-0.05L6.217,5.186L6.159,5.21l0.426,1.303C6.802,6.416,7.3,6.347,7.882,6.345c0.581,0.002,1.08,0.07,1.296,0.168L9.605,5.21
		L9.545,5.186"/>
	<path fill="#FFFFFF" d="M10.05,15.425c-0.668,0-1.209,0.104-1.209,0.231s0.541,0.231,1.209,0.231c0.666,0,1.208-0.104,1.208-0.231
		S10.717,15.425,10.05,15.425"/>
	<path fill="#FFFFFF" d="M11.713,13.927l-0.697,0.492l-0.006,0.049l0.165,0.074c0.033,0.018,0.034,0.042,0.017,0.059l-0.438,0.37
		l-0.042-0.005l-0.311-0.456c-0.021-0.03-0.014-0.06,0.023-0.066l0.209-0.033v-0.053l-0.541-0.765h-0.089l-0.539,0.765v0.053
		l0.208,0.033c0.037,0.007,0.046,0.037,0.023,0.066l-0.31,0.456l-0.041,0.005l-0.41-0.37c-0.017-0.017-0.016-0.041,0.017-0.059
		l0.166-0.074l-0.006-0.049l-0.728-0.492l-0.059,0.024l0.427,1.304c0.217-0.098,0.714-0.166,1.296-0.169
		c0.582,0.003,1.08,0.071,1.297,0.169l0.427-1.304L11.713,13.927"/>
	<path fill="#FFFFFF" d="M12.211,6.683c-0.667,0-1.209,0.104-1.209,0.232c0,0.128,0.541,0.232,1.209,0.232s1.208-0.104,1.208-0.232
		C13.419,6.787,12.879,6.683,12.211,6.683"/>
	<path fill="#FFFFFF" d="M13.875,5.186l-0.698,0.491l-0.006,0.05l0.166,0.075c0.032,0.015,0.033,0.041,0.017,0.057l-0.438,0.37
		l-0.042-0.004l-0.311-0.457c-0.021-0.029-0.013-0.06,0.024-0.064l0.208-0.034V5.616l-0.539-0.763h-0.09l-0.539,0.763v0.054
		l0.208,0.034c0.037,0.005,0.046,0.035,0.023,0.064l-0.311,0.457l-0.041,0.004l-0.41-0.375c-0.016-0.015-0.016-0.042,0.017-0.058
		l0.166-0.07l-0.006-0.049l-0.727-0.491L10.489,5.21l0.427,1.303c0.216-0.098,0.713-0.166,1.296-0.168
		c0.583,0.002,1.08,0.07,1.296,0.168l0.427-1.303L13.875,5.186"/>
	<path fill="#FFFFFF" d="M10.289,1.677c0,0.138-0.111,0.248-0.248,0.248c-0.138,0-0.249-0.11-0.249-0.248
		c0-0.136,0.111-0.247,0.249-0.247C10.177,1.43,10.289,1.542,10.289,1.677"/>
	<path fill="#FFFFFF" d="M16.075,3.988c-0.007,0.137-0.124,0.242-0.261,0.235c-0.137-0.008-0.242-0.124-0.234-0.262
		c0.007-0.135,0.124-0.241,0.26-0.233C15.976,3.736,16.082,3.851,16.075,3.988"/>
	<g>
		<path fill="#FFFFFF" d="M8.049,9.028c0.076,0,0.119-0.075,0.119-0.239c0-0.18-0.064-0.28-0.143-0.28
			C7.957,8.508,7.9,8.587,7.9,8.746C7.9,8.91,7.96,9.028,8.049,9.028z"/>
		<path fill="#FFFFFF" d="M7.312,8.52c-0.021,0-0.032,0.003-0.038,0.007C7.27,8.529,7.268,8.548,7.268,8.572v0.346
			c0,0.08,0.02,0.096,0.062,0.096c0.078,0,0.156-0.086,0.156-0.245C7.487,8.575,7.389,8.52,7.312,8.52z"/>
		<path fill="#FFFFFF" d="M9.487,7.975C9.32,7.878,9.093,7.846,8.815,7.846H6.798v4.089h2.195c0.508,0,0.808,0.115,0.833,0.571
			h0.049V8.789C9.875,8.425,9.752,8.132,9.487,7.975z M8.387,9.026C8.431,9.022,8.449,9.013,8.454,8.98
			c0.004-0.027,0.01-0.075,0.014-0.159L8.478,8.64c0.007-0.114-0.001-0.125-0.072-0.13V8.475h0.212l0.157,0.356l0.139-0.356h0.219
			h0.001V8.51c-0.069,0.007-0.072,0.009-0.07,0.104l0.01,0.303c0.002,0.1,0.004,0.102,0.069,0.108v0.035H8.86V9.026
			c0.066-0.007,0.07-0.009,0.068-0.108L8.926,8.599H8.922L8.749,9.052H8.701L8.536,8.631H8.533l-0.007,0.2
			C8.524,8.91,8.524,8.953,8.528,8.98c0.004,0.033,0.025,0.041,0.083,0.046v0.035H8.387V9.026z M8.906,10.11
			c0.048,0,0.083-0.029,0.083-0.089c0-0.054-0.035-0.083-0.091-0.108L8.885,9.907C8.812,9.873,8.727,9.825,8.727,9.728
			c0-0.103,0.074-0.185,0.217-0.185c0.027,0,0.057,0.004,0.082,0.011c0.021,0.005,0.035,0.009,0.047,0.013
			c0.004,0.036,0.011,0.08,0.02,0.141L9.053,9.714C9.033,9.654,9.001,9.589,8.93,9.589c-0.045,0-0.078,0.036-0.078,0.08
			c0,0.045,0.035,0.071,0.093,0.097l0.02,0.01C9.048,9.814,9.12,9.859,9.12,9.964c0,0.111-0.09,0.192-0.229,0.192
			c-0.036,0-0.073-0.006-0.099-0.015c-0.026-0.01-0.045-0.017-0.056-0.021c-0.007-0.042-0.019-0.091-0.029-0.151l0.039-0.012
			C8.764,10.01,8.818,10.11,8.906,10.11z M8.426,9.956c0.027-0.076,0.086-0.248,0.1-0.292C8.545,9.611,8.54,9.599,8.5,9.595
			L8.472,9.591V9.557H8.69v0.034c-0.051,0.008-0.063,0.012-0.1,0.094c-0.004,0.013-0.113,0.28-0.182,0.465h-0.07v0.001
			c-0.062-0.163-0.146-0.387-0.18-0.47c-0.029-0.078-0.047-0.084-0.091-0.09V9.557h0.291v0.034l-0.03,0.004
			C8.295,9.599,8.295,9.608,8.305,9.639C8.321,9.689,8.393,9.868,8.426,9.956z M8.044,8.461c0.165,0,0.292,0.12,0.292,0.3
			c0,0.192-0.132,0.314-0.305,0.314c-0.182,0-0.301-0.134-0.301-0.3C7.731,8.63,7.829,8.461,8.044,8.461z M7.042,9.061V9.026
			C7.107,9.02,7.115,9.014,7.115,8.917V8.619c0-0.097-0.008-0.104-0.065-0.107V8.475h0.263c0.111,0,0.203,0.021,0.264,0.08
			c0.042,0.04,0.077,0.107,0.077,0.185c0,0.225-0.17,0.321-0.379,0.321H7.042z M7.642,10.675c-0.062,0.004-0.069,0.011-0.069,0.108
			v0.298c0,0.097,0.007,0.104,0.069,0.109v0.034H7.35v-0.034c0.062-0.006,0.068-0.013,0.068-0.109v-0.298
			c0-0.098-0.007-0.104-0.068-0.108v-0.036h0.292V10.675z M7.656,10.143H7.431v-0.035c0.04-0.002,0.062-0.015,0.067-0.046
			c0.005-0.028,0.007-0.077,0.007-0.173V9.724c0-0.066-0.002-0.078-0.02-0.104C7.473,9.601,7.45,9.595,7.418,9.591V9.557h0.199
			l0.3,0.374h0.001V9.81c0-0.095-0.003-0.145-0.007-0.173c-0.004-0.03-0.028-0.042-0.089-0.046V9.557h0.23v0.034
			C8.008,9.593,7.985,9.607,7.981,9.637C7.977,9.666,7.973,9.715,7.973,9.81v0.34v0.001H7.896L7.562,9.724H7.56v0.165
			c0,0.096,0.004,0.145,0.008,0.173c0.004,0.031,0.028,0.044,0.088,0.046V10.143z M8.148,11.225H7.701v-0.034
			c0.068-0.006,0.076-0.013,0.076-0.109v-0.298c0-0.098-0.008-0.104-0.068-0.108v-0.036h0.294v0.036
			c-0.065,0.004-0.072,0.011-0.072,0.108v0.309H7.929c0,0.048,0.002,0.07,0.019,0.078c0.015,0.008,0.036,0.008,0.063,0.008
			c0.028,0,0.067-0.002,0.086-0.025c0.015-0.018,0.03-0.041,0.045-0.09l0.039,0.007C8.175,11.104,8.156,11.198,8.148,11.225z
			 M8.652,11.225H8.204v-0.034c0.069-0.006,0.076-0.013,0.076-0.109v-0.298c0-0.098-0.007-0.104-0.067-0.108v-0.036h0.293v0.036
			c-0.064,0.004-0.072,0.011-0.072,0.108v0.309c0,0.048,0.002,0.07,0.018,0.078c0.015,0.008,0.036,0.008,0.064,0.008
			s0.066-0.002,0.085-0.025c0.016-0.018,0.03-0.041,0.045-0.09l0.039,0.007C8.679,11.104,8.659,11.198,8.652,11.225z M9.215,10.675
			c-0.052,0.006-0.063,0.01-0.099,0.093C9.111,10.78,9,11.047,8.933,11.231H8.864c-0.062-0.161-0.147-0.384-0.18-0.47
			c-0.029-0.076-0.048-0.082-0.092-0.086v-0.036h0.293v0.036l-0.031,0.003c-0.033,0.004-0.033,0.011-0.024,0.044
			c0.018,0.05,0.089,0.229,0.122,0.315c0.028-0.077,0.085-0.249,0.101-0.291c0.019-0.056,0.013-0.064-0.027-0.069l-0.028-0.002
			v-0.036h0.219V10.675z M9.496,8.511c-0.062,0.004-0.07,0.011-0.07,0.107v0.299c0,0.097,0.008,0.103,0.07,0.108v0.035H9.203V9.026
			C9.265,9.02,9.272,9.014,9.272,8.917V8.619c0-0.097-0.007-0.104-0.069-0.107V8.475h0.293V8.511z"/>
	</g>
	<g>
		<polygon fill="#FFFFFF" points="12.636,8.678 12.582,8.849 12.696,8.849 12.639,8.678 		"/>
		<path fill="#FFFFFF" d="M11.288,7.846c-0.278,0-0.505,0.032-0.671,0.129c-0.267,0.157-0.391,0.45-0.391,0.813v3.718h0.05
			c0.025-0.456,0.324-0.571,0.833-0.571h2.21V7.846H11.288z M11.762,8.495h0.199l0.301,0.374h0.002v-0.12
			c0-0.096-0.003-0.145-0.007-0.172c-0.004-0.032-0.028-0.044-0.089-0.046V8.495h0.229v0.036c-0.044,0.001-0.068,0.014-0.072,0.046
			c-0.004,0.027-0.008,0.076-0.008,0.172v0.338h-0.077l-0.333-0.425h-0.002v0.166c0,0.095,0.004,0.145,0.007,0.172
			C11.917,9.032,11.942,9.042,12,9.046v0.035h-0.224V9.046C11.816,9.044,11.839,9.032,11.843,9c0.004-0.027,0.008-0.077,0.008-0.172
			V8.662c0-0.066-0.002-0.078-0.02-0.104c-0.014-0.019-0.036-0.024-0.069-0.026V8.495z M12.57,9.863
			c0,0.193-0.133,0.313-0.306,0.313c-0.182,0-0.3-0.132-0.3-0.298c0-0.146,0.097-0.315,0.312-0.315
			C12.443,9.563,12.57,9.685,12.57,9.863z M11.889,10.128v0.034h-0.293v-0.034c0.063-0.006,0.069-0.013,0.069-0.109V9.72
			c0-0.097-0.006-0.104-0.069-0.107V9.577h0.293v0.036C11.827,9.617,11.82,9.624,11.82,9.72v0.299
			C11.82,10.116,11.827,10.123,11.889,10.128z M11.425,9.045c0.062-0.005,0.069-0.012,0.069-0.108V8.639
			c0-0.098-0.008-0.104-0.069-0.109V8.495h0.292V8.53c-0.062,0.006-0.069,0.012-0.069,0.109v0.298c0,0.097,0.007,0.104,0.069,0.108
			v0.036h-0.292V9.045z M11.429,10.128v0.034h-0.314v-0.034c0.072-0.006,0.079-0.013,0.079-0.109V9.624h-0.015
			c-0.061,0-0.085,0.012-0.1,0.027c-0.011,0.013-0.021,0.036-0.033,0.087h-0.038c0.004-0.076,0.009-0.138,0.011-0.184h0.028
			c0.013,0.021,0.021,0.022,0.047,0.022h0.36c0.022,0,0.027-0.005,0.041-0.022h0.029c0,0.037,0.004,0.114,0.009,0.182l-0.039,0.002
			c-0.014-0.053-0.023-0.078-0.036-0.092c-0.017-0.017-0.046-0.022-0.09-0.022h-0.021v0.396h-0.001
			C11.347,10.116,11.355,10.123,11.429,10.128z M10.832,9.082h-0.223V9.045C10.653,9.042,10.669,9.033,10.674,9
			c0.006-0.028,0.011-0.076,0.016-0.158l0.009-0.183c0.006-0.112-0.001-0.123-0.072-0.129V8.494h0.213l0.157,0.357l0.139-0.357
			h0.219l0.001,0.001V8.53c-0.069,0.007-0.072,0.009-0.069,0.104l0.008,0.303c0.003,0.099,0.005,0.102,0.069,0.108v0.036h-0.281
			V9.045c0.067-0.007,0.07-0.01,0.069-0.108l-0.003-0.318h-0.004L10.97,9.071h-0.049L10.756,8.65h-0.002l-0.006,0.201
			C10.746,8.927,10.747,8.971,10.75,9c0.004,0.033,0.022,0.041,0.081,0.046V9.082z M11.623,11.245H11.34V11.21
			c0.067-0.007,0.07-0.01,0.069-0.109l-0.003-0.317h-0.004l-0.175,0.451h-0.047l-0.165-0.419h-0.002l-0.007,0.199
			c-0.003,0.077-0.002,0.121,0.002,0.148c0.004,0.033,0.022,0.041,0.083,0.047v0.034h-0.225V11.21
			c0.044-0.005,0.061-0.014,0.066-0.047c0.004-0.027,0.01-0.076,0.015-0.158l0.011-0.182c0.005-0.114-0.002-0.123-0.072-0.13v-0.036
			h0.211l0.158,0.358l0.137-0.358h0.221v0.001v0.035c-0.068,0.007-0.072,0.01-0.07,0.105l0.01,0.302
			c0.003,0.1,0.005,0.103,0.069,0.109V11.245z M12.135,11.245h-0.458V11.21c0.069-0.006,0.077-0.013,0.077-0.109v-0.299h-0.002
			c0-0.097-0.007-0.103-0.066-0.108v-0.035h0.427c0.001,0.017,0.006,0.081,0.011,0.149l-0.041,0.002
			c-0.009-0.044-0.019-0.068-0.032-0.084c-0.015-0.015-0.045-0.021-0.092-0.021h-0.016c-0.035,0-0.036,0-0.036,0.032v0.174h0.045
			c0.078,0,0.08-0.005,0.089-0.074h0.04v0.213h-0.04c-0.009-0.079-0.011-0.085-0.089-0.085h-0.045v0.147
			c0,0.046,0.002,0.069,0.019,0.076c0.014,0.008,0.035,0.009,0.062,0.009c0.036,0,0.075-0.005,0.097-0.026
			c0.015-0.016,0.03-0.051,0.043-0.094l0.04,0.007C12.163,11.128,12.145,11.221,12.135,11.245z M12.767,11.245h-0.283V11.21
			l0.027-0.004c0.032-0.004,0.034-0.014,0.022-0.046l-0.032-0.093h-0.147l-0.027,0.088c-0.012,0.038-0.012,0.047,0.03,0.052
			l0.025,0.003v0.034h-0.21V11.21c0.047-0.007,0.06-0.011,0.09-0.086l0.181-0.467l0.062-0.013l0.061,0.171
			c0.038,0.107,0.078,0.214,0.112,0.305c0.028,0.079,0.045,0.084,0.089,0.09V11.245z M12.979,9.082h-0.283V9.045l0.026-0.003
			c0.034-0.005,0.036-0.014,0.023-0.047l-0.032-0.091h-0.148L12.538,8.99c-0.011,0.04-0.011,0.049,0.03,0.053l0.027,0.003v0.036
			h-0.211V9.045c0.046-0.007,0.06-0.01,0.089-0.086l0.181-0.467l0.062-0.011l0.062,0.17c0.039,0.106,0.077,0.213,0.111,0.306
			c0.03,0.078,0.045,0.082,0.09,0.088V9.082z"/>
		<path fill="#FFFFFF" d="M12.131,9.848c0,0.163,0.062,0.281,0.15,0.281c0.078,0,0.119-0.075,0.119-0.238
			c0-0.182-0.064-0.28-0.142-0.28C12.19,9.611,12.131,9.689,12.131,9.848z"/>
		<polygon fill="#FFFFFF" points="12.425,10.842 12.369,11.015 12.485,11.015 12.428,10.842 		"/>
	</g>
	<path fill="#FFFFFF" d="M9.226,18.67c0,0.136-0.11,0.247-0.247,0.247s-0.248-0.111-0.248-0.247c0-0.137,0.111-0.249,0.248-0.249
		S9.226,18.534,9.226,18.67"/>
	<path fill="#FFFFFF" d="M11.667,19.07c0,0.137-0.109,0.248-0.247,0.248c-0.137,0-0.248-0.111-0.248-0.248
		c0-0.136,0.111-0.248,0.248-0.248C11.557,18.822,11.667,18.934,11.667,19.07"/>
	<path fill="#FFFFFF" d="M2.307,5.545"/>
	<path fill="#FFFFFF" d="M11.957,2.831"/>
	<path fill="#FFFFFF" d="M12.42,1.197"/>
	<path fill="#FFFFFF" d="M16.303,5.978"/>
	<path fill="#FFFFFF" d="M19.024,11.359"/>
	<path fill="#FFFFFF" d="M18.176,13.805"/>
	<path fill="#FFFFFF" d="M3.413,14c0.085,0.001,0.326,0.024,0.529,0.312c0.083,0.119,0.142,0.259,0.142,0.406
		c-0.001,0.243-0.119,0.383-0.404,0.582l-0.754,0.534l-0.206-0.293l0.847-0.597c0.077-0.056,0.182-0.146,0.182-0.261
		c0-0.064-0.008-0.117-0.066-0.199c-0.089-0.127-0.183-0.139-0.242-0.139c-0.09,0-0.175,0.054-0.357,0.182l-0.732,0.479L2.15,14.723
		l0.778-0.509C3.133,14.068,3.266,14,3.413,14"/>
	<polyline fill="#FFFFFF" points="2.069,13.31 3.103,12.905 3.212,13.193 1.653,13.799 1.542,13.497 2.349,12.468 1.308,12.833 
		1.198,12.527 2.773,11.977 2.876,12.263 2.069,13.311 	"/>
	<polyline fill="#FFFFFF" points="0.946,11.233 2.604,10.982 2.658,11.334 1,11.586 0.946,11.233 	"/>
	<polyline fill="#FFFFFF" points="2.544,9.881 0.844,10.39 0.86,10.031 2.135,9.687 0.894,9.229 0.908,8.88 2.559,9.535 
		2.544,9.881 	"/>
	<polyline fill="#FFFFFF" points="1.086,7.973 1.365,6.996 1.639,7.074 1.458,7.712 1.833,7.818 2.004,7.219 2.275,7.296 
		2.105,7.895 2.514,8.013 2.703,7.354 2.983,7.435 2.7,8.431 1.085,7.972 	"/>
	<path fill="#FFFFFF" d="M3.647,6.09L3.15,6.046C2.915,6.026,2.892,6.081,2.826,6.201L2.807,6.235l0.59,0.314l-0.176,0.31
		L1.746,6.052l0.243-0.425c0.108-0.196,0.225-0.403,0.52-0.403c0.186,0,0.443,0.154,0.443,0.436c0,0.049-0.012,0.103-0.033,0.157
		c0.066-0.095,0.188-0.109,0.296-0.108c0.062,0,0.12,0.01,0.169,0.014l0.448,0.04L3.647,6.09 M2.409,5.583
		c-0.085,0.025-0.13,0.091-0.193,0.204L2.161,5.882l0.407,0.22l0.068-0.124c0.057-0.102,0.069-0.161,0.049-0.232
		C2.67,5.69,2.619,5.632,2.569,5.605C2.508,5.572,2.45,5.572,2.409,5.583L2.409,5.583z"/>
	<polyline fill="#FFFFFF" points="4.39,2.789 4.675,2.574 5.684,3.912 5.4,4.128 4.39,2.789 	"/>
	<polyline fill="#FFFFFF" points="6.272,1.958 6.91,3.193 6.592,3.357 5.955,2.121 5.545,2.332 5.415,2.077 6.548,1.493 6.68,1.747 
		6.272,1.958 	"/>
	<polyline fill="#FFFFFF" points="8.235,2.046 8.397,2.696 8.065,2.779 7.904,2.129 7.147,1.278 7.499,1.191 7.999,1.776 
		8.167,1.024 8.503,0.941 8.235,2.046 	"/>
	<polyline fill="#FFFFFF" points="14.306,2.649 14.835,2.965 14.692,3.207 14.163,2.891 13.794,3.509 13.493,3.33 14.35,1.888 
		15.209,2.4 15.064,2.646 14.505,2.315 14.306,2.649 	"/>
	<polyline fill="#FFFFFF" points="17.321,8.098 17.779,7.593 17.113,7.436 17.003,7.084 17.994,7.345 18.614,6.618 18.73,6.984 
		18.303,7.45 18.921,7.599 19.029,7.943 18.108,7.696 17.436,8.463 17.321,8.098 	"/>
	<polyline fill="#FFFFFF" points="18.925,9.293 18.537,9.325 18.578,9.945 18.296,9.963 18.255,9.349 17.538,9.398 17.513,9.06 
		19.187,8.922 19.254,9.931 18.968,9.951 18.925,9.293 	"/>
	<path fill="#FFFFFF" d="M20.104,10.118C20.149,4.583,15.676,0.046,10.133,0c-2.59-0.021-5.057,0.94-6.947,2.705
		C1.154,4.604,0.023,7.178,0,9.955c-0.027,3.31,1.578,6.409,4.298,8.308c0.257,1.075,1.228,1.877,2.386,1.877
		c0.331,0,0.651-0.063,0.954-0.191c0.322,0.102,0.652,0.188,0.983,0.258c-0.108,0.295-0.26,0.571-0.407,0.823l0.239,0.241
		c0.059-0.039,0.126-0.058,0.194-0.058c0.184,0,0.36,0.126,0.358,0.353c0,0.185-0.124,0.357-0.384,0.357
		c-0.14,0-0.322-0.073-0.419-0.284c0,0-0.065,0.205-0.065,0.451c0,0.746,0.811,1.566,1.896,1.911
		c1.092-0.342,1.898-1.165,1.898-1.911c0-0.246-0.065-0.451-0.065-0.451c-0.098,0.211-0.279,0.284-0.42,0.284
		c-0.258,0-0.384-0.173-0.384-0.357c0-0.227,0.175-0.353,0.359-0.353c0.068,0,0.137,0.019,0.193,0.058l0.221-0.221l0.005-0.003
		l0.01-0.012c0.002,0.001,0.003,0.001,0.004,0.002v-0.006l0.002-0.002l-0.001-0.002l0,0c-0.109-0.26-0.188-0.498-0.244-0.724
		c1.8-0.247,3.319-1.011,4.527-2.282l-0.002-0.002C18.633,16.122,20.079,13.25,20.104,10.118 M6.684,19.802
		c-1.158,0-2.101-0.946-2.101-2.107c0-0.363,0.093-0.706,0.254-1.004c0.108,0.097,0.222,0.199,0.341,0.301
		c-0.102,0.215-0.161,0.456-0.161,0.709c0,0.632,0.319,1.152,0.921,1.508c0.348,0.205,0.744,0.392,1.163,0.552
		C6.964,19.788,6.825,19.802,6.684,19.802L6.684,19.802z M10.052,16.725c-0.394,0-0.78-0.036-1.161-0.103
		c-0.409-0.835-1.273-1.374-2.207-1.374c-0.239,0-0.471,0.036-0.689,0.1c-1.647-1.261-2.629-3.234-2.629-5.312
		c0-3.688,3-6.689,6.687-6.689s6.686,3.001,6.686,6.689S13.738,16.725,10.052,16.725z M11.479,16.917
		c-0.174,0.279-0.28,0.643-0.317,1.009c-0.611-0.159-1.169-0.371-1.656-0.593c0.067-0.142,0.226-0.272,0.495-0.272
		c0.018,0,0.034,0.002,0.052,0.002C10.541,17.063,11.018,17.012,11.479,16.917z M9.34,17.027c-0.055,0.049-0.102,0.104-0.14,0.163
		c-0.214-0.091-0.629-0.285-0.763-0.364C8.651,16.894,9.125,17.005,9.34,17.027z M6.684,15.586c0.702,0,1.362,0.361,1.747,0.939
		c-0.34-0.085-0.673-0.195-0.998-0.334v0.003l-0.01-0.006c-0.228-0.107-0.47-0.16-0.722-0.16c-0.561,0-1.056,0.273-1.361,0.692
		c-0.129-0.071-0.258-0.146-0.384-0.224C5.336,15.948,5.968,15.586,6.684,15.586z M11.393,20.902c-0.386,0-0.671,0.3-0.671,0.671
		c0,0.433,0.303,0.693,0.692,0.693c0.049,0,0.097-0.006,0.143-0.016c-0.117,0.539-0.755,1.124-1.524,1.386
		c-0.755-0.262-1.403-0.847-1.52-1.386c0.046,0.01,0.094,0.016,0.142,0.016c0.392,0,0.693-0.261,0.693-0.693
		c0-0.371-0.285-0.671-0.672-0.671c0.099-0.18,0.209-0.399,0.289-0.63c0.455,0.077,0.9,0.119,1.316,0.119
		c0.336,0,0.662-0.017,0.98-0.048c0.044,0.164,0.147,0.479,0.175,0.561C11.424,20.903,11.409,20.902,11.393,20.902L11.393,20.902z
		 M10.282,20.053c-1.338,0-3.009-0.454-4.157-1.132c-0.343-0.202-0.751-0.578-0.751-1.22c0-0.166,0.031-0.327,0.088-0.474
		c0.433,0.357,0.878,0.688,1.158,0.842c0.065,0.037,0.104,0.055,0.182,0.055c0.184,0,0.334-0.15,0.334-0.335
		c0-0.142-0.077-0.256-0.204-0.312c-0.24-0.105-0.739-0.312-1.28-0.59c0.243-0.317,0.623-0.521,1.052-0.521
		c0.195,0,0.385,0.041,0.562,0.125l0.365,0.213c1.161,0.709,4.132,2.522,7.73,1.58C14,19.473,12.333,20.053,10.282,20.053
		L10.282,20.053z M15.906,17.763c-1.608,0.567-3.11,0.531-4.395,0.247c0.04-0.549,0.245-1.159,0.585-1.251
		c2.888-0.876,4.997-3.559,4.997-6.724c0-3.875-3.159-7.027-7.041-7.027c-3.883,0-7.042,3.152-7.042,7.027
		c0,2.116,0.969,4.13,2.608,5.458c-0.383,0.186-0.711,0.467-0.952,0.812c-0.116-0.08-0.228-0.163-0.33-0.248L4.27,16.125
		c0.071,0.086,0.177,0.196,0.306,0.32c-0.221,0.365-0.349,0.793-0.349,1.249c0,0.031,0.004,0.062,0.005,0.094
		c-2.458-1.849-3.901-4.744-3.877-7.831c0.022-2.688,1.116-5.176,3.08-7.011c1.822-1.702,4.2-2.628,6.694-2.607
		c5.347,0.043,9.661,4.429,9.617,9.775C19.723,13.15,18.323,15.93,15.906,17.763L15.906,17.763z"/>
	<path fill="#FFFFFF" d="M4.695,4.589c0,0.145-0.062,0.295-0.188,0.433C4.265,5.285,4.008,5.308,3.981,5.308L3.909,5.03
		c0.04-0.01,0.229-0.05,0.363-0.195c0.061-0.066,0.092-0.137,0.092-0.199c0-0.066-0.043-0.181-0.18-0.181
		c-0.146,0-0.39,0.211-0.64,0.211c-0.097,0-0.202-0.014-0.313-0.115C3.124,4.452,3.075,4.328,3.075,4.2
		c0-0.14,0.062-0.286,0.18-0.414C3.478,3.541,3.725,3.52,3.747,3.52l0.061,0.272C3.778,3.798,3.596,3.837,3.482,3.961
		C3.423,4.026,3.393,4.095,3.393,4.157c0,0.065,0.042,0.147,0.15,0.148c0.119,0.001,0.422-0.221,0.668-0.221
		c0.112,0,0.195,0.022,0.311,0.126C4.637,4.316,4.695,4.449,4.695,4.589"/>
	<path fill="#FFFFFF" d="M12.422,2.902c-0.429,0-0.817-0.325-0.817-0.815c0-0.437,0.293-0.945,0.826-0.945
		c0.433,0,0.835,0.306,0.835,0.8C13.266,2.311,13.016,2.902,12.422,2.902 M12.908,1.937c0-0.116-0.025-0.238-0.096-0.332
		c-0.073-0.098-0.192-0.166-0.334-0.166c-0.301,0-0.521,0.373-0.521,0.682c0,0.285,0.193,0.48,0.452,0.48
		C12.75,2.601,12.908,2.159,12.908,1.937L12.908,1.937z"/>
	<path fill="#FFFFFF" d="M17.075,6.486c-0.511,0-0.793-0.491-0.793-0.821c0-0.501,0.539-0.884,0.96-0.884
		c0.459,0,0.795,0.437,0.795,0.832C18.037,6.062,17.568,6.486,17.075,6.486 M17.014,6.146c0.294,0,0.703-0.255,0.703-0.598
		c0-0.236-0.183-0.42-0.418-0.42c-0.275,0-0.696,0.244-0.696,0.59C16.603,5.903,16.744,6.146,17.014,6.146L17.014,6.146z"/>
	<path fill="#FFFFFF" d="M17.405,11.426c0-0.413,0.279-0.819,0.838-0.819c0.469,0,0.922,0.288,0.922,0.808
		c0,0.426-0.273,0.836-0.827,0.836C17.864,12.25,17.405,11.952,17.405,11.426 M18.356,11.892c0.297,0,0.516-0.183,0.516-0.449
		c0-0.318-0.369-0.481-0.654-0.481c-0.365,0-0.513,0.237-0.513,0.462C17.705,11.771,18.132,11.892,18.356,11.892z"/>
	<path fill="#FFFFFF" d="M16.766,13.404l0.499,0.002c0.236,0.003,0.254-0.055,0.311-0.178l0.017-0.037l-0.601-0.279l0.145-0.318
		l1.518,0.701l-0.194,0.437c-0.133,0.294-0.247,0.442-0.524,0.442c-0.179,0-0.441-0.148-0.44-0.422
		c0.002-0.042,0.007-0.088,0.021-0.135c-0.09,0.155-0.314,0.134-0.455,0.134l-0.45-0.002L16.766,13.404 M17.74,13.591
		c0,0.128,0.106,0.23,0.228,0.23c0.106,0,0.174-0.059,0.237-0.198l0.052-0.127l-0.414-0.194l-0.069,0.156
		C17.75,13.508,17.74,13.553,17.74,13.591z"/>
	<path fill="#FFFFFF" d="M15.745,15.259c0-0.343,0.16-0.529,0.36-0.777l0.219-0.268l1.3,1.059l-0.292,0.359
		c-0.164,0.201-0.358,0.451-0.731,0.451c-0.212,0-0.399-0.099-0.531-0.205C15.903,15.744,15.745,15.516,15.745,15.259
		 M16.639,15.751c0.177,0,0.279-0.053,0.483-0.304l0.062-0.078l-0.863-0.703l-0.106,0.132c-0.104,0.128-0.158,0.254-0.158,0.374
		c0,0.161,0.08,0.304,0.244,0.438C16.418,15.706,16.527,15.751,16.639,15.751L16.639,15.751z"/>
</g>
</svg>
