<?xml version="1.0" encoding="utf-8"?>
<!-- Generator: Adobe Illustrator 16.0.0, SVG Export Plug-In . SVG Version: 6.00 Build 0)  -->
<!DOCTYPE svg PUBLIC "-//W3C//DTD SVG 1.1 Tiny//EN" "http://www.w3.org/Graphics/SVG/1.1/DTD/svg11-tiny.dtd">
<svg version="1.1" baseProfile="tiny" id="logotype"
	 xmlns="http://www.w3.org/2000/svg" xmlns:xlink="http://www.w3.org/1999/xlink" x="0px" y="0px" width="755px" height="110px"
	 viewBox="0 0 755 110" xml:space="preserve">
<g>
	<path fill="#71C7E6" d="M640.822,48.491c2.658-4.711,4.182-10.146,4.182-15.94c0-17.951-14.553-32.5-32.5-32.5h-2.5h-30
		c-8.284,0-15,6.716-15,15v80c0,8.284,6.716,15,15,15h37.5c20.711,0,37.5-16.789,37.5-37.5
		C655.004,62.196,649.278,53.182,640.822,48.491z M612.504,30.051c4.136,0,7.5,3.364,7.5,7.5s-3.364,7.5-7.5,7.5h-2.5h-15v-15
		H612.504z M617.504,80.051h-22.5v-15h15h2.5h5c4.143,0,7.5,3.357,7.5,7.5S621.646,80.051,617.504,80.051z"/>
	<path fill="#71C7E6" d="M119.049,9.737c-0.054-0.145-0.125-0.279-0.183-0.421c-0.104-0.252-0.208-0.503-0.325-0.75
		c-0.105-0.222-0.219-0.436-0.333-0.65c-0.114-0.211-0.228-0.421-0.352-0.627c-0.134-0.225-0.276-0.441-0.421-0.657
		c-0.125-0.187-0.253-0.373-0.387-0.554c-0.156-0.21-0.317-0.414-0.482-0.614c-0.146-0.178-0.296-0.354-0.451-0.525
		c-0.166-0.183-0.336-0.36-0.51-0.533c-0.175-0.176-0.354-0.348-0.538-0.515c-0.17-0.154-0.344-0.301-0.52-0.446
		c-0.203-0.167-0.408-0.331-0.621-0.488c-0.178-0.132-0.359-0.257-0.543-0.38c-0.22-0.148-0.441-0.292-0.67-0.43
		c-0.2-0.12-0.403-0.23-0.608-0.34c-0.221-0.119-0.442-0.236-0.671-0.345c-0.236-0.112-0.476-0.211-0.717-0.311
		c-0.15-0.062-0.292-0.135-0.445-0.193c-0.066-0.025-0.133-0.04-0.199-0.063c-0.258-0.093-0.52-0.17-0.782-0.249
		c-0.215-0.064-0.429-0.133-0.644-0.188c-0.254-0.063-0.512-0.111-0.769-0.162c-0.228-0.044-0.454-0.095-0.681-0.129
		c-0.248-0.037-0.498-0.056-0.748-0.08c-0.238-0.023-0.475-0.053-0.712-0.064c-0.246-0.012-0.493-0.006-0.74-0.006
		c-0.241,0-0.482-0.006-0.721,0.006c-0.243,0.012-0.486,0.042-0.729,0.066c-0.245,0.024-0.489,0.042-0.731,0.078
		c-0.23,0.034-0.458,0.085-0.688,0.13c-0.256,0.051-0.513,0.098-0.766,0.161c-0.213,0.054-0.424,0.122-0.636,0.185
		c-0.267,0.08-0.532,0.159-0.793,0.253c-0.064,0.023-0.13,0.038-0.194,0.062c-0.149,0.056-0.287,0.128-0.433,0.188
		c-0.248,0.102-0.494,0.204-0.735,0.319c-0.223,0.106-0.439,0.221-0.655,0.336c-0.21,0.113-0.42,0.227-0.625,0.35
		c-0.224,0.134-0.441,0.276-0.656,0.42c-0.188,0.126-0.374,0.254-0.557,0.39c-0.208,0.154-0.41,0.314-0.608,0.478
		c-0.18,0.148-0.357,0.299-0.531,0.456c-0.182,0.165-0.357,0.334-0.529,0.506c-0.176,0.176-0.349,0.355-0.517,0.541
		c-0.154,0.17-0.302,0.344-0.447,0.521c-0.167,0.202-0.329,0.406-0.485,0.617c-0.134,0.181-0.26,0.365-0.386,0.551
		c-0.145,0.216-0.288,0.434-0.422,0.659c-0.123,0.206-0.237,0.415-0.35,0.626c-0.115,0.215-0.229,0.429-0.334,0.65
		c-0.117,0.247-0.222,0.498-0.325,0.75c-0.059,0.142-0.128,0.276-0.183,0.421L75.004,52.284L59.049,9.737
		c-0.054-0.145-0.124-0.279-0.183-0.421c-0.104-0.252-0.208-0.503-0.325-0.75c-0.105-0.222-0.219-0.436-0.334-0.65
		c-0.113-0.211-0.227-0.42-0.35-0.626c-0.135-0.226-0.277-0.443-0.423-0.66c-0.125-0.186-0.251-0.37-0.385-0.55
		c-0.157-0.212-0.319-0.417-0.486-0.619c-0.145-0.176-0.292-0.349-0.445-0.518c-0.168-0.186-0.342-0.366-0.519-0.542
		c-0.172-0.172-0.346-0.34-0.527-0.504c-0.175-0.158-0.353-0.31-0.534-0.459c-0.197-0.163-0.397-0.322-0.604-0.475
		c-0.185-0.137-0.373-0.266-0.562-0.394c-0.213-0.143-0.428-0.283-0.649-0.416c-0.208-0.125-0.42-0.24-0.634-0.355
		c-0.212-0.114-0.425-0.227-0.645-0.331c-0.246-0.117-0.497-0.222-0.75-0.325c-0.143-0.059-0.277-0.129-0.423-0.184
		c-0.062-0.023-0.126-0.038-0.188-0.06c-0.271-0.097-0.546-0.179-0.822-0.261c-0.202-0.06-0.403-0.125-0.605-0.176
		c-0.267-0.067-0.539-0.118-0.81-0.17c-0.215-0.042-0.429-0.09-0.644-0.122c-0.259-0.039-0.521-0.059-0.782-0.084
		c-0.227-0.021-0.453-0.05-0.679-0.062c-0.253-0.013-0.508-0.006-0.763-0.006c-0.234,0-0.469-0.006-0.702,0.005
		c-0.245,0.012-0.49,0.042-0.735,0.066c-0.243,0.024-0.486,0.042-0.727,0.078c-0.229,0.034-0.458,0.085-0.687,0.13
		c-0.257,0.051-0.515,0.098-0.769,0.162c-0.212,0.054-0.422,0.122-0.633,0.185c-0.267,0.08-0.533,0.159-0.795,0.253
		c-0.064,0.023-0.13,0.038-0.194,0.062c-0.15,0.056-0.289,0.128-0.436,0.189c-0.246,0.101-0.49,0.203-0.73,0.317
		c-0.225,0.107-0.442,0.223-0.66,0.339c-0.208,0.112-0.416,0.225-0.619,0.347c-0.226,0.135-0.445,0.278-0.662,0.424
		c-0.186,0.125-0.37,0.251-0.55,0.385c-0.211,0.156-0.415,0.318-0.615,0.484c-0.178,0.146-0.353,0.295-0.524,0.45
		c-0.184,0.167-0.361,0.338-0.536,0.513C34.23,4.58,34.06,4.756,33.894,4.939c-0.156,0.172-0.305,0.348-0.452,0.527
		c-0.165,0.199-0.326,0.402-0.48,0.611c-0.135,0.183-0.263,0.369-0.39,0.557c-0.144,0.214-0.285,0.431-0.419,0.654
		c-0.124,0.206-0.238,0.417-0.352,0.628c-0.115,0.214-0.229,0.428-0.333,0.65c-0.117,0.245-0.221,0.495-0.324,0.747
		c-0.059,0.143-0.129,0.278-0.184,0.424l-30,80c-2.909,7.757,1.021,16.402,8.778,19.312c1.735,0.65,3.515,0.959,5.265,0.959
		c6.073,0,11.789-3.716,14.047-9.737l15.955-42.547l15.955,42.547c0.086,0.23,0.187,0.45,0.283,0.674
		c0.047,0.109,0.089,0.222,0.139,0.33c0.19,0.414,0.396,0.816,0.619,1.205c0.014,0.025,0.031,0.048,0.045,0.073
		c0.211,0.364,0.438,0.714,0.676,1.055c0.062,0.089,0.129,0.176,0.193,0.264c0.203,0.277,0.414,0.546,0.633,0.806
		c0.081,0.096,0.162,0.192,0.246,0.286c0.236,0.266,0.481,0.521,0.735,0.768c0.069,0.068,0.135,0.139,0.206,0.206
		c0.318,0.298,0.648,0.581,0.989,0.849c0.104,0.082,0.214,0.157,0.32,0.236c0.252,0.188,0.509,0.369,0.771,0.54
		c0.135,0.088,0.272,0.174,0.411,0.258c0.286,0.173,0.578,0.336,0.875,0.49c0.102,0.052,0.2,0.109,0.303,0.16
		c0.408,0.2,0.824,0.379,1.248,0.542c0.029,0.011,0.057,0.026,0.086,0.037c0.085,0.032,0.172,0.053,0.257,0.083
		c0.285,0.101,0.571,0.195,0.861,0.279c0.143,0.041,0.285,0.079,0.428,0.116c0.266,0.068,0.534,0.128,0.804,0.182
		c0.149,0.03,0.299,0.061,0.448,0.086c0.277,0.046,0.556,0.081,0.836,0.112c0.134,0.015,0.267,0.035,0.401,0.046
		c0.399,0.033,0.801,0.053,1.205,0.054c0.008,0,0.016,0.001,0.024,0.001c0,0,0.001,0,0.001,0c0.001,0,0.002,0,0.002,0
		c0.008,0,0.017-0.001,0.024-0.001c0.403-0.001,0.805-0.021,1.205-0.054c0.134-0.011,0.269-0.031,0.404-0.046
		c0.278-0.031,0.556-0.065,0.831-0.111c0.152-0.026,0.304-0.057,0.456-0.087c0.267-0.053,0.531-0.113,0.793-0.18
		c0.146-0.038,0.292-0.076,0.438-0.118c0.287-0.083,0.569-0.176,0.85-0.276c0.088-0.031,0.177-0.053,0.264-0.085
		c0.03-0.011,0.058-0.026,0.088-0.038c0.422-0.162,0.837-0.341,1.244-0.54c0.107-0.052,0.209-0.111,0.314-0.166
		c0.292-0.152,0.58-0.312,0.862-0.482c0.142-0.086,0.281-0.173,0.42-0.264c0.258-0.168,0.509-0.345,0.756-0.529
		c0.111-0.083,0.226-0.161,0.333-0.246c0.339-0.267,0.667-0.547,0.982-0.844c0.076-0.071,0.146-0.147,0.22-0.22
		c0.248-0.242,0.489-0.493,0.721-0.753c0.086-0.097,0.169-0.196,0.253-0.295c0.217-0.257,0.425-0.522,0.625-0.796
		c0.066-0.09,0.135-0.18,0.199-0.272c0.236-0.337,0.46-0.684,0.669-1.044c0.017-0.028,0.036-0.055,0.052-0.083
		c0.222-0.388,0.428-0.789,0.617-1.202c0.05-0.109,0.092-0.222,0.14-0.332c0.096-0.223,0.197-0.443,0.283-0.672l15.955-42.547
		l15.955,42.547c2.258,6.022,7.974,9.737,14.047,9.737c1.75,0,3.53-0.309,5.265-0.959c7.757-2.909,11.688-11.555,8.778-19.312
		L119.049,9.737z"/>
	<path fill="#71C7E6" d="M229.207,3.159c-6.541-5.082-15.964-3.9-21.048,2.642l-23.155,29.802L161.849,5.801
		c-5.083-6.542-14.505-7.726-21.048-2.642c-6.542,5.083-7.725,14.506-2.642,21.048l31.845,40.986v29.811c0,8.284,6.716,15,15,15
		s15-6.716,15-15V65.193l31.845-40.986C236.932,17.665,235.749,8.242,229.207,3.159z"/>
	<path fill="#71C7E6" d="M330.61,4.397c-5.857-5.857-15.355-5.857-21.213,0L275.004,38.82V15.004c0-8.284-6.716-15-15-15
		s-15,6.716-15,15v80c0,8.284,6.716,15,15,15s15-6.716,15-15v-13.74l12.035-12.045l20.103,33.503
		c2.812,4.688,7.78,7.284,12.877,7.284c2.626,0,5.287-0.69,7.703-2.14c7.104-4.262,9.407-13.476,5.145-20.58L308.898,47.34
		l21.712-21.73C336.469,19.753,336.469,10.255,330.61,4.397z"/>
	<path fill="#71C7E6" d="M461.087,16.113c-21.444,21.444-21.444,56.337,0,77.781c10.722,10.723,24.807,16.083,38.891,16.083
		s28.169-5.36,38.891-16.083c21.444-21.444,21.444-56.337,0-77.781C517.425-5.332,482.53-5.332,461.087,16.113z M482.3,72.682
		c-9.747-9.748-9.747-25.607,0-35.355c9.748-9.748,25.607-9.748,35.355,0c9.747,9.748,9.747,25.607,0,35.355
		C507.907,82.43,492.048,82.43,482.3,72.682z"/>
	<path fill="#71C7E6" d="M740.004,80.051h-45V70.004h25c8.284,0,15-6.716,15-15s-6.716-15-15-15h-25v-9.953h45
		c8.284,0,15-6.716,15-15s-6.716-15-15-15h-59.072c-0.309-0.019-0.614-0.047-0.928-0.047c-8.284,0-15,6.716-15,15v80
		c0,0.008,0.001,0.016,0.001,0.023s-0.001,0.016-0.001,0.023c0,8.284,6.716,15,15,15h60c8.284,0,15-6.716,15-15
		S748.288,80.051,740.004,80.051z"/>
	<path fill="#71C7E6" d="M435.004,40.004c0-22.056-17.944-40-40-40h-35c-8.284,0-15,6.716-15,15v80c0,8.284,6.716,15,15,15
		s15-6.716,15-15v-15h18.508l13.63,22.717c2.812,4.688,7.78,7.285,12.877,7.285c2.626,0,5.287-0.689,7.702-2.14
		c7.104-4.262,9.408-13.476,5.146-20.579L422.12,69.376C430.035,62.063,435.004,51.604,435.004,40.004z M375.004,30.004h20
		c5.514,0,10,4.486,10,10s-4.486,10-10,10h-20V30.004z"/>
</g>
</svg>
